<?xml version="1.0" encoding="UTF-8"?>
<svg width="242px" height="214px" viewBox="0 0 242 214" version="1.1" xmlns="http://www.w3.org/2000/svg" xmlns:xlink="http://www.w3.org/1999/xlink">
    <!-- Generator: Sketch 62 (91390) - https://sketch.com -->
    <title>fig1.standalone-figure0</title>
    <desc>Created with Sketch.</desc>
    <rect width="242" height="214" fill="#fff"/>
    <g id="Page-1" stroke="none" stroke-width="1" fill="none" fill-rule="evenodd">
        <g id="fig1.standalone-figure0">
            <path d="M0.2,212.80088 L241.1479,212.80088 M0.2,198.62748 L241.1479,198.62748 M0.2,184.45406 L241.1479,184.45406 M0.2,170.28066 L241.1479,170.28066 M0.2,156.10724 L241.1479,156.10724 M0.2,141.93386 L241.1479,141.93386 M0.2,127.76044 L241.1479,127.76044 M0.2,113.58704 L241.1479,113.58704 M0.2,99.41362 L241.1479,99.41362 M0.2,85.24024 L241.1479,85.24024 M0.2,71.06682 L241.1479,71.06682 M0.2,56.89342 L241.1479,56.89342 M0.2,42.72 L241.1479,42.72 M0.2,28.54662 L241.1479,28.54662 M0.2,14.3732 L241.1479,14.3732 M0.2,0.20478 L241.1479,0.20478 M0.2,212.80088 L0.2,0.1998 M14.37342,212.80088 L14.37342,0.1998 M28.54682,212.80088 L28.54682,0.1998 M42.72024,212.80088 L42.72024,0.1998 M56.89362,212.80088 L56.89362,0.1998 M71.06704,212.80088 L71.06704,0.1998 M85.24044,212.80088 L85.24044,0.1998 M99.41386,212.80088 L99.41386,0.1998 M113.58724,212.80088 L113.58724,0.1998 M127.76066,212.80088 L127.76066,0.1998 M141.93406,212.80088 L141.93406,0.1998 M156.10748,212.80088 L156.10748,0.1998 M170.28088,212.80088 L170.28088,0.1998 M184.45428,212.80088 L184.45428,0.1998 M198.62768,212.80088 L198.62768,0.1998 M212.8011,212.80088 L212.8011,0.1998 M226.9745,212.80088 L226.9745,0.1998 M241.14292,212.80088 L241.14292,0.1998" id="Stroke-1" stroke="#CBCBCB" stroke-width="0.3985"></path>
            <g id="Group-4" transform="translate(38.000000, 18.997000)">
                <polyline id="Stroke-2" stroke="#000000" stroke-width="1.99255" points="99.72315 2.24312 99.72315 2.24312 99.72315 2.24312 99.72315 2.24312 99.72315 2.24312 99.72315 2.24312 99.72315 2.24312 99.71677 2.24312 99.71677 2.24312 99.71015 2.2495 99.70377 2.2495 99.69717 2.2495 99.69077 2.25612 99.67777 2.25612 99.6714 2.2625 99.6584 2.26912 99.63879 2.26912 99.62579 2.2755 99.6064 2.2821 99.58703 2.29487 99.56103 2.3015 99.53503 2.30787 99.50904 2.32087 99.48304 2.33387 99.45066 2.34048 99.41167 2.35325 99.37928 2.37286 99.33392 2.38586 99.29491 2.39886 99.24953 2.41824 99.19755 2.43762 99.14579 2.45724 99.09379 2.47662 99.03542 2.5026 98.97066 2.522 98.90566 2.54799 98.8409 2.57399 98.76954 2.59999 98.69155 2.63237 98.61379 2.65835 98.52943 2.69073 98.44505 2.72973 98.3543 2.76211 98.26331 2.8011 98.16618 2.83348 98.06219 2.87886 97.95843 2.91786 97.84808 2.96324 97.73792 3.00862 97.62095 3.05398 97.49781 3.09959 97.37446 3.15136 97.2447 3.20335 97.10857 3.25511 96.9722 3.31349 96.82946 3.3721 96.68034 3.43046 96.53097 3.48884 96.37545 3.5536 96.2131 3.61859 96.05097 3.68997 95.88222 3.75473 95.7071 3.8261 95.53197 3.90408 95.35023 3.97546 95.1621 4.05322 94.96737 4.13759 94.77287 4.21534 94.57174 4.29971 94.37061 4.3907 94.1565 4.47506 93.94238 4.56582 93.72164 4.66319 93.50114 4.75395 93.27402 4.85132 93.04052 4.95508 92.8004 5.05244 92.5603 5.16281 92.31379 5.26657 92.06068 5.3767 91.8078 5.48707 91.54829 5.60382 91.28219 5.72056 91.00968 5.83755 90.73719 5.9543 90.4583 6.08404 90.17281 6.20718 89.88732 6.33693 89.59522 6.46692 89.29696 6.60304 88.99847 6.7394 88.6936 6.87553 88.3821 7.0183 88.06423 7.16104 87.74613 7.30378 87.42187 7.45291 87.091 7.60226 86.76012 7.75801 86.42265 7.91353 86.08538 8.07588 85.7349 8.23802 85.38465 8.40014 85.03417 8.56889 84.6773 8.73762 84.31405 8.90637 83.94419 9.0815 83.57432 9.26324 83.19807 9.43837 82.82183 9.6201 82.43896 9.80822 82.04972 9.99635 81.66047 10.18448 81.26461 10.37921 80.86875 10.57373 80.4665 10.77484 80.05788 10.97596 79.64902 11.17709 79.23377 11.38482 78.81853 11.59233 78.3969 11.80645 77.96867 12.02057 77.54043 12.24107 77.11219 12.4618 76.67756 12.68231 76.23632 12.90944 75.7951 13.13655 75.34747 13.36366 74.89985 13.59717 74.45222 13.83728 73.998 14.0774 73.53736 14.31729 73.07674 14.56401 72.61613 14.81051 72.1489 15.05702 71.67529 15.31013 71.20167 15.56302 70.72805 15.8225 70.25443 16.08201 69.7742 16.34813 69.28757 16.61422 68.80096 16.88011 68.31435 17.1526 67.82134 17.4251 67.32835 17.7042 66.83512 17.98309 66.3355 18.2622 65.8359 18.5477 65.33651 18.83296 64.83689 19.12506 64.33067 19.41694 63.81829 19.70904 63.31206 20.0073 62.79967 20.31242 62.28707 20.61091 61.77445 20.91578 61.25545 21.22728 60.73647 21.53853 60.21725 21.85002 59.69825 22.16789 59.17287 22.48576 58.65365 22.80386 58.12826 23.12813 57.60265 23.45262 57.07705 23.78349 56.54505 24.11435 56.01945 24.44522 55.48745 24.78271 54.96207 25.11996 54.43008 25.46383 53.89785 25.8077 53.36587 26.15158 52.83387 26.50206 52.30187 26.8523 51.76327 27.20918 51.23128 27.55943 50.69929 27.92291 50.16729 28.27977 49.62891 28.64302 49.09669 29.00627 48.5647 29.37614 48.02631 29.746 47.49433 30.11587 46.9621 30.49211 46.4301 30.86836 45.89173 31.25123 45.35975 31.63409 44.82775 32.01672 44.30215 32.39958 43.77015 32.78883 43.23815 33.17808 42.71255 33.57394 42.18055 33.9698 41.65495 34.36543 41.12934 34.76129 40.60395 35.16353 40.08495 35.56578 39.55935 35.97464 39.04035 36.38327 38.52113 36.79213 38.00213 37.20736 37.48315 37.616 36.97053 38.03123 36.45792 38.45309 35.94553 38.8747 35.43931 39.29634 34.93331 39.7182 34.42731 40.14644 33.92109 40.57467 33.4217 41.00268 32.9221 41.43092 32.42248 41.86578 31.92925 42.30041 31.43626 42.74164 30.94964 43.18287 30.46302 43.62388 29.9764 44.06512 29.4964 44.50636 29.01617 44.95399 28.54255 45.40161 28.06893 45.85585 27.59531 46.30346 27.12809 46.7577 26.66746 47.21194 26.20046 47.66594 25.74622 48.1268 25.29198 48.58741 24.83799 49.04803 24.39013 49.50865 23.94912 49.97589 23.50788 50.44288 23.06664 50.91012 22.63203 51.37713 22.20379 51.85075 21.77555 52.31798 21.35369 52.7916 20.93868 53.27182 20.52343 53.74543 20.10819 54.21905 19.70571 54.69906 19.2971 55.17929 18.90124 55.6593 18.50559 56.14592 18.11636 56.62614 17.7335 57.11276 17.35062 57.59938 16.97437 58.08598 16.59814 58.57899 16.23466 59.06561 15.8714 59.5586 15.50816 60.05183 15.15766 60.54483 14.80741 61.03805 14.46354 61.53106 14.11968 62.03067 13.78881 62.52368 13.45771 63.02328 13.13345 63.5229 12.80897 64.02252 12.49747 64.52212 12.18621 65.02812 11.88111 65.52774 11.58285 66.03373 11.28435 66.53335 10.99886 67.03935 10.71337 67.54558 10.70037 67.57133 10.49924 67.9412 10.29813 68.31106 10.097 68.68094 9.90226 69.0508 9.71415 69.42042 9.52602 69.7903 9.3379 70.16015 9.15615 70.53003 8.97465 70.90628 8.7993 71.27614 8.62417 71.646 8.44903 72.02224 8.2803 72.39212 8.11816 72.76198 7.95603 73.13823 7.79368 73.51448 7.63793 73.88434 7.48241 74.26059 7.33306 74.63044 7.18392 75.0067 7.04118 75.38318 6.89843 75.75943 6.76208 76.12928 6.62594 76.50554 6.4962 76.88179 6.36643 77.25804 6.24308 77.63452 6.11971 78.01077 5.99657 78.387 5.87983 78.76326 5.76946 79.13313 5.6591 79.50961 5.54896 79.88585 5.44497 80.2621 5.34783 80.63835 5.25047 81.01483 5.1531 81.39108 5.06234 81.76733 4.97797 82.14357 4.8936 82.52005 4.80923 82.8963 4.73147 83.27916 4.65348 83.65541 4.5821 84.03166 4.51073 84.40791 4.44598 84.78439 4.3876 85.16064 4.32261 85.53688 4.27062 85.91313 4.21885 86.28961 4.16686 86.66586 4.12148 87.03572 4.0761 87.41197 4.03712 87.78822 3.99812 88.16447 3.96574 88.54095 3.93336 88.9172 3.90737 89.29344 3.88137 89.66331 3.86199 90.03956 3.84899 90.41603 3.82961 90.79228 3.82299 91.16215 3.81 91.5384 3.81 91.91464 3.81 92.28451 3.81 92.66076 3.81661 93.03062 3.82299 93.40687 3.83599 93.77673 3.84899 94.1466 3.86837 94.52285 3.88798 94.89271 3.91398 95.26257 3.93975 95.63244 3.97236 96.0087 4.00474 96.37855 4.04372 96.7482 4.0825 97.11805 4.12788 97.48791 4.17348 97.85116 4.22524 98.22104 4.27723 98.5909 4.33561 98.96077 4.39399 99.32402 4.45898 99.69388 4.52373 100.05713 4.58872 100.427 4.66648 100.79048 4.73785 101.15373 4.8156 101.51698 4.89999 101.88046 4.98435 102.24371 5.07534 102.60696 5.16608 102.97044 5.25684 103.33369 5.35421 103.69694 5.45797 104.0538 5.56194 104.41728 5.6657 104.77392 5.77584 105.1374 5.89281 105.49428 6.00957 105.85113 6.12632 106.208 6.24946 106.56463 6.37283 106.9215 6.50257 107.27838 6.63232 107.62886 6.76868 107.98571 6.90482 108.34236 7.04757 108.69284 7.19032 109.04309 7.33967 109.39358 7.4888 109.75044 7.63793 110.09431 7.79368 110.44456 7.95603 110.79504 8.11155 111.1453 8.2803 111.48916 8.44903 111.83966 8.61777 112.18351 8.7929 112.52739 8.96803 112.87126 9.14315 113.21513 9.3249 113.55899 9.51302 113.89625 9.70115 114.24012 9.88927 114.5776 10.084 114.92148 10.27874 115.25873 10.47987 115.5962 10.68099 115.93347 10.8885 116.26434 11.09623 116.60182 11.30373 116.93269 11.51786 117.26996 11.73197 117.60104 11.95248 117.93191 12.17321 118.26278 12.40034 118.59366 12.62745 118.91792 12.85433 119.24902 13.08807 119.57327 13.32157 119.89776 13.56168 120.22203 13.80157 120.5465 14.0417 120.871 14.28818 121.18887 14.5413 121.51335 14.7878 121.83122 15.04092 122.1491 15.3004 122.46698 15.55991 122.78485 15.8194 123.09634 16.08552 123.41421 16.3514 123.72569 16.61752 124.03718 16.89 124.34845 17.1625 124.65994 17.44138 124.96481 17.7205 125.2763 17.99937 125.58117 18.28486 125.88627 18.57037 126.19116 18.85586 126.49603 19.14796 126.79452 19.43984 127.0994 19.73833 127.39789 20.03681 127.69638 20.33508 127.98826 20.64019 128.28674 20.94506 128.57885 21.24993 128.87712 21.56142 129.16922 21.87292 129.4611 22.18417 129.7466 22.50228 130.03846 22.82015 130.32396 23.1444 130.60946 23.4625 130.89496 23.78677 131.17405 24.11764 131.45955 24.44851 131.73843 24.77961 132.01754 25.11048 132.29641 25.44773 132.5753 25.78522 132.84802 26.12247 133.12053 26.46635 133.3994 26.81022 133.66551 27.15408 133.938 27.50455 134.20389 27.85482 134.47639 28.2053 134.73588 28.55555 135.002 28.91242 135.26788 29.26928 135.52737 29.63253 135.7871 29.9894 136.0466 30.35265 136.30609 30.71613 136.55897 31.08599 136.81209 31.45563 137.0652 31.8255 137.3181 32.19537 137.57121 32.5716 137.8177 32.94808 138.06444 33.32433 138.31093 33.70058 138.55082 34.08344 138.79754 34.46609 139.03743 34.84895 139.27755 35.2318 139.51767 35.62106 139.75117 36.01029 139.98489 36.39954 140.2184 36.7954 140.4519 37.18465 140.67901 37.58051 140.91252 37.97614 141.13965 38.37838 141.36038 38.77424 141.58726 39.17649 141.808 39.57873 142.0285 39.98098 142.24923 40.38984 142.46974 40.79847 142.68385 41.2007 142.89798 41.61594 143.1121 42.0248 143.31961 42.43343 143.52734 42.84869 143.73485 43.26392 143.94258 43.67916 144.15008 44.0944 144.35121 44.51626 144.55233 44.9315 144.75346 45.35313 144.9482 45.77499 145.1427 46.203 145.33745 46.62485 145.53218 47.0531 145.7203 47.47472 145.9148 47.90296 146.09655 48.3312 146.28468 48.75944 146.46641 49.19405 146.64793 49.6223 146.82966 50.05692 147.01141 50.49178 147.18654 50.9264 147.36166 51.36103 147.53702 51.79588 147.70553 52.23711 147.87426 52.67175 148.04301 53.11298 148.21176 53.554 148.37388 53.98884 148.54263 54.43647 148.69836 54.8777 148.8605 55.31893 149.01625 55.75994 149.17198 56.2078 149.3275 56.65542 149.47686 57.09666 149.62599 57.54427 149.77536 57.9919 149.92448 58.43952 150.06723 58.88737 150.20997 59.34138 150.35272 59.78924 150.48909 60.23685 150.62521 60.69086 150.76158 61.13871 150.89772 61.59272 151.02746 62.04696 151.15721 62.50118 151.28695 62.94881 151.41032 63.40305 151.54007 63.85705 151.65683 64.3179 151.7802 64.7719 151.89694 65.22614 152.01368 65.68038 152.13044 66.13439 152.24081 66.59501 152.35095 67.04925 152.46132 67.50986 152.57168 67.96409 152.67543 68.42472 152.77919 68.87894 152.87655 69.33958 152.98031 69.8002 153.07768 70.25443 153.17505 70.71505 153.2658 71.17567 153.35678 71.6299 153.44754 72.09052 153.5383 72.55114 153.62266 73.01176 153.70704 73.47237 153.78503 73.92661 153.86917 74.38723 153.94716 74.84786 154.02491 75.30848 154.09628 75.76933 154.16766 76.22334 154.23903 76.68395 154.3104 77.1448 154.3754 77.60542 154.44015 78.06603 154.49853 78.52027 154.56352 78.98089 154.6219 79.4415 154.67389 79.89574 154.73227 80.35636 154.78402 80.817 154.83601 81.27122 154.88139 81.73185 154.93338 82.18584 154.97215 82.6467 155.01776 83.1007 155.05652 83.56133 155.09552 84.01556 155.1345 84.4698 155.16688 84.9238 155.20588 85.38465 155.23164 85.83866 155.26425 86.2929 155.29025 86.74712 155.31602 87.20113 155.33563 87.65537 155.36162 88.10961 155.38101 88.55723 155.39401 89.01147 155.41339 89.46548 155.42639 89.91332 155.433 90.36733 155.44577 90.81518 155.45237 91.2628 155.45877 91.71043 155.45877 92.16465 155.45877 92.61228 155.45877 93.05352 155.45877 93.50114 155.45237 93.94875 155.44577 94.39639 155.43937 94.83762 155.42639 95.28524 155.41339 95.72648 155.40039 96.16772 155.38739 96.60896 155.36801 97.0502 155.34863 97.4912 155.32263 97.93244 155.29663 98.37368 155.27064 98.8083 155.24464 99.24953 155.21226 99.68417 155.17988 100.11901 155.1475 100.55364 155.1149 100.98826 155.07612 101.27377 155.05014 101.80598 154.99814 102.33797 154.94638 102.86335 154.88778 103.39535 154.8294 103.92095 154.76465 104.44656 154.69966 104.96555 154.62828 105.49117 154.56352 106.01017 154.48553 106.52915 154.40777 107.04815 154.33001 107.56077 154.24565 108.07977 154.16127 108.59237 154.0703 109.09837 153.97954 109.61098 153.88878 110.11698 153.79141 110.6232 153.68765 111.1292 153.59028 111.6352 153.47992 112.13482 153.37617 112.63442 153.2658 113.13404 153.14905 113.63364 153.0323 114.12666 152.91556 114.61988 152.79219 115.11288 152.66905 115.5995 152.5393 116.09249 152.40954 116.57911 152.27319 117.05933 152.14345 117.54595 152.0007 118.02596 151.85795 118.50619 151.7152 118.9798 151.57245 119.45342 151.42332 119.92704 151.26758 120.40066 151.11183 120.8679 150.95608 121.34151 150.80035 121.80213 150.63821 122.26914 150.46948 122.72999 150.30073 123.1906 150.13221 123.65122 149.95686 124.10546 149.78174 124.55947 149.60661 125.00732 149.42486 125.46133 149.24336 125.90894 149.055 126.35679 148.86688 126.7978 148.67875 127.23904 148.48425 127.68027 148.28952 128.12151 148.09477 128.55614 147.89364 128.99076 147.69253 129.419 147.48503 129.84725 147.27728 130.27549 147.06978 130.70373 146.85566 131.12536 146.64154 131.5472 146.42103 131.96244 146.20692 132.38407 145.9798 132.79932 145.75906 133.20817 145.53218 133.6168 145.30505 134.02566 145.07133 134.43429 144.83783 134.83654 144.60432 135.23878 144.37082 135.63464 144.1307 136.03689 143.8842 136.43275 143.64409 136.82198 143.3976 137.21123 143.14448 137.60049 142.89798 137.98972 142.64486 138.3726 142.39175 138.75545 142.13226 139.1317 141.87275 139.50796 141.61326 139.88442 141.35376 140.26067 141.08764 140.63055 140.82176 141.0004 140.54927 141.36365 140.27678 141.7269 140.00428 142.09039 139.73178 142.44703 139.45268 142.80389 139.1738 143.16076 138.89468 143.51124 138.60942 143.86149 138.33032 144.21197 138.04483 144.55584 137.75294 144.89971 137.46745 145.24358 137.17535 145.58083 136.87709 145.91833 136.58497 146.2492 136.28648 146.58645 135.98822 146.91093 135.68972 147.2418 135.38485 147.56629 135.07975 147.89056 134.77487 148.20866 134.47 148.52653 134.1585 148.8444 133.85363 149.15589 133.54214 149.47376 133.22427 149.77863 132.91278 150.09013 132.5949 150.395 132.27704 150.69349 131.95894 150.99198 131.63467 151.29047 131.3168 151.58874 130.99232 151.88084 130.66783 152.17272 130.33696 152.46482 130.01271 152.75008 129.68184 153.03558 129.35074 153.31469 129.01986 153.60018 128.6826 153.87267 128.35174 154.15156 128.01425 154.42405 127.677 154.69656 127.3395 154.96265 126.99565 155.22854 126.65838 155.49465 126.31451 155.76076 125.97065 156.02026 125.62678 156.27976 125.28291 156.53265 124.93243 156.78576 124.58856 157.03887 124.23831 157.28538 123.88783 157.53187 123.53758 157.77837 123.1807 158.01849 122.83023 158.2586 122.47358 158.49871 122.1231 158.73861 121.76623 158.97233 121.40938 159.19923 121.0525 159.43296 120.68925 159.66007 120.3324 159.88696 119.96914 160.10769 119.61227 160.3282 119.24902 160.54893 118.88554 160.76305 118.52229 160.97717 118.15242 161.19106 117.78917 161.40519 117.42569 161.61292 117.05606 161.82043 116.69258 162.02155 116.32272 162.22266 115.95308 162.42379 115.58322 162.62514 115.21335 162.81965 114.84349 163.0144 114.47361 163.2089 114.09738 163.39703 113.7275 163.58538 113.35125 163.76688 112.9814 163.95501 112.60515 164.13676 112.23529 164.31849 111.85904 164.49361 111.48279 164.66874 111.1063 164.84386 110.73005 165.01923 110.3538 165.18774 109.97757 165.35648 109.60109 165.51861 109.22484 165.68735 108.84858 165.84971 108.46573 166.00523 108.08947 166.16758 107.71322 166.32333 107.33037 166.47884 106.95411 166.6282 106.57126 166.78394 106.195 166.93308 105.81215 167.07583 105.4359 167.22518 105.05304 167.3677 104.67679 167.51044 104.29393 167.64681 103.91768 167.78956 103.5348 167.9257 103.15194 168.05544 102.7757 168.1918 102.39283 168.32156 102.01658 168.4513 101.63373 168.57467 101.2511 168.70441 100.87462 168.82755 100.49199 168.95092 100.1155 169.06766 99.73288 169.19103 99.3564 169.30778 98.97377 169.41814 98.59729 169.5349 98.21464 169.64504 97.8384 169.75541 97.46193 169.86578 97.0793 169.96952 96.70282 170.07328 96.32657 170.17725 95.9437 170.28101 95.56746 170.37838 95.1912 170.48214 94.81495 170.5795 94.43847 170.67025 94.06222 170.76763 93.68599 170.85838 93.3095 170.94913 92.93986 171.04012 92.5634 171.12449 92.18715 171.20864 91.81727 171.293 91.44102 171.37737 91.07116 171.46175 90.7013 171.53974 90.32506 171.6175 89.95518 171.69524 89.58555 171.77323 89.21568 171.84461 88.84582 171.91598 88.47596 171.98736 88.11271 172.05872 87.74284 172.1235 87.37298 172.18848 87.00973 172.25985 86.64648 172.31823 86.27661 172.38299 85.91313 172.4416 85.54988 172.50636 85.18663 172.56474 84.82977 172.61672 84.46629 172.67509 84.10304 172.72686 83.74617 172.77885 83.3893 172.83083 83.02604 172.8826 82.66919 172.9346 82.31231 172.97997 81.96206 173.02535 81.60519 173.07073 81.24833 173.11633 80.89785 173.1551 80.54759 173.20048 80.19711 173.23946 79.84686 173.27847 79.49661 173.31745 79.14613 173.34983 78.80226 173.38883 78.45201 173.42121 78.10814 173.45359 77.76426 173.48597 77.42039 173.51197 77.07652 173.54435 76.73266 173.57034 76.39517 173.59634 76.05792 173.62232 75.71405 173.64832 75.37657 173.67432 75.0457 173.6937 74.7082 173.71308 74.37095 173.73269 74.04008 173.75208 73.70921 173.77146 73.37834 173.79107 73.04747 173.80407 72.72299 173.81707 72.39212 173.82984 72.06762 173.84283 71.74337 173.85583 71.41888 173.86883 71.0944 173.87545 70.77014 173.88183 70.45204 173.89483 70.13417 173.9012 69.8163 173.9012 69.49841 173.90783 69.18054 173.9142 68.86906 173.9142 68.55757 173.9142 68.2463 173.9142 67.93481 173.9142 67.79207 173.9142 67.14972 173.90783 66.50735 173.89483 65.87799 173.87545 65.24862 173.85583 64.62588 173.83645 64.00952 173.81045 63.39953 173.77807 62.79617 173.74569 62.1928 173.7067 61.60243 173.66132 61.01207 173.61571 60.43446 173.56396 59.8571 173.51197 59.29272 173.4602 58.72812 173.39521 58.17013 173.33683 57.61876 173.26546 57.07376 173.20048 56.53515 173.12272 56.00317 173.05134 55.47117 172.96697 54.95218 172.88921 54.43956 172.79823 53.92695 172.71409 53.42733 172.61672 52.92796 172.52573 52.43472 172.4286 51.95472 172.32461 51.4745 172.22086 51.00088 172.1105 50.53387 172.00036 50.07303 171.88999 49.61241 171.77323 49.16478 171.65649 48.72354 171.53312 48.2823 171.40998 47.84768 171.28 47.42605 171.15026 47.0042 171.02052 46.58896 170.88438 46.17372 170.74163 45.77147 170.60526 45.37584 170.46252 44.97998 170.3134 44.59074 170.16425 44.20787 170.00852 43.83162 169.85915 43.45538 169.69703 43.0919 169.54128 42.72865 169.37916 42.37178 169.21041 42.0149 169.04166 41.67105 168.87316 41.32718 168.6978 40.98991 168.52267 40.65883 168.34093 40.32795 168.16581 40.00369 167.97768 39.68582 167.78956 39.36772 167.60143 39.05645 167.4133 38.75136 167.21857 38.45309 167.01745 38.1546 166.82272 37.8561 166.61521 37.57061 166.41409 37.28512 166.20635 36.99963 165.99223 36.72712 165.78472 36.44825 165.56422 36.18214 165.35009 35.90965 165.12937 35.65014 164.90224 35.39065 164.67536 35.13115 164.44823 34.87803 164.21452 34.62492 163.98101 34.37843 163.7475 34.1383 163.5074 33.89181 163.26728 33.6583 163.02077 33.4182 162.77427 33.18469 162.52116 32.95758 162.26827 32.73045 162.00878 32.50334 161.75567 32.27644 161.48956 32.05572 161.23006 31.8416 160.95756 31.62109 160.69167 31.40696 160.41918 31.19923 160.14007 30.98512 159.8612 30.77762 159.58208 30.56987 159.2966 30.36236 159.0111 30.16125 158.71922 29.96013 158.42735 29.759 158.13523 29.55787 157.83675 29.36314 157.53187 29.16202 157.227 28.96751 156.92213 28.77278 156.61063 28.57803 156.29914 28.38353 155.98127 28.1954 155.6634 28.00067 155.34553 27.81254 155.02103 27.62442 154.69016 27.43629 154.35929 27.24817 154.02842 27.06004 153.69094 26.87169 153.34707 26.68356 153.00982 26.49543 152.65934 26.30731 152.30907 26.11918 151.9586 25.93745 151.60174 25.74933 151.24487 25.5612 150.88822 25.37307 150.51836 25.19134 150.15488 25.00322 149.78524 24.81509 149.40878 24.62697 149.03252 24.43884 148.65627 24.25049 148.27341 24.06236 147.88416 23.87423 147.49491 23.68611 147.10567 23.49798 146.70982 23.30987 146.31396 23.11512 145.9117 22.927 145.50307 22.7325 145.10084 22.54414 144.68558 22.34964 144.27674 22.15489 143.85511 21.96039 143.43987 21.76565 143.35549 21.72665 143.05062 21.59053 142.73913 21.44778 142.43426 21.30504 142.12276 21.16227 141.81127 21.01953 141.4998 20.87678 141.18192 20.73404 140.87043 20.59129 140.55256 20.44854 140.23469 20.3058 139.9102 20.16305 139.58593 20.01393 139.26145 19.87118 138.93719 19.72844 138.61271 19.5793 138.28184 19.43655 137.95097 19.2872 137.6201 19.13806 137.28922 18.99531 136.95174 18.84596 136.61425 18.69682 136.277 18.55407 135.9395 18.40495 135.59565 18.25558 135.25838 18.10646 134.9079 17.95709 134.56403 17.80797 134.22018 17.65884 133.86991 17.50947 133.51966 17.36035 133.16918 17.21098 132.81893 17.05523 132.46206 16.90611 132.1052 16.75697 131.74833 16.60762 131.39146 16.45187 131.0282 16.30275 130.67135 16.15338 130.30787 16.00425 129.94462 15.84851 129.57474 15.69937 129.2115 15.55002 128.84164 15.39427 128.47176 15.24514 128.1019 15.096 127.72565 14.94026 127.3558 14.7909 126.97955 14.64177 126.6033 14.49264 126.22044 14.3369 125.84418 14.18754 125.46133 14.0384 125.08508 13.88905 124.70222 13.73353 124.31297 13.58416 123.9301 13.43504 123.54086 13.28569 123.1516 13.13655 122.76237 12.98742 122.37312 12.83806 121.98386 12.69531 121.588 12.54619 121.19877 12.39682 120.80291 12.25407 120.40726 12.10495 120.0048 11.9622 119.60917 11.81306 119.20692 11.67032 118.80468 11.52757 118.40244 11.38482 118.00019 11.23547 117.59772 11.09933 117.1891 10.95659 116.78684 10.81384 116.37798 10.6711 115.96935 10.53473 115.56051 10.3986 115.15188 10.25586 114.73663 10.11949 114.32777 9.98335 113.91253 9.847 113.49729 9.71725 113.08205 9.58111 112.6668 9.45137 112.24517 9.315 111.82993 9.18525 111.4083 9.05551 110.98646 8.93237 110.56483 8.80262 110.14297 8.67926 109.72135 8.55589 109.29949 8.43275 108.87786 8.30938 108.44962 8.18603 108.02139 8.06927 107.59975 7.94613 107.17152 7.82939 106.74328 7.71902 106.30865 7.60226 105.88041 7.49191 105.45217 7.38154 105.01756 7.2714 104.58932 7.16104 104.15446 7.05728 103.71983 6.94691 103.28521 6.84955 102.85035 6.74579 102.41573 6.64842 101.9811 6.54467 101.54626 6.45392 101.10525 6.35655 100.67039 6.26556 100.22915 6.1748 99.79453 6.08404 99.3533 5.99968 98.91228 5.91531 98.47105 5.83093 98.02981 5.74656 97.58857 5.6688 97.14733 5.59082 96.70632 5.51945 96.26508 5.4417 95.82384 5.3767 95.37623 5.30533 94.93499 5.24057 94.48737 5.17558 94.04613 5.11082 93.5985 5.05244 93.15726 4.99406 92.70965 4.94207 92.26203 4.89032 91.81417 4.83832 91.37293 4.79295 90.92532 4.74757 90.4777 4.70857 90.03007 4.66319 89.58245 4.63058 89.1346 4.59182 88.68697 4.55922 88.23936 4.53344 87.79172 4.50744 87.34388 4.48146 86.89626 4.46208 86.44863 4.44246 85.9944 4.42308 85.54678 4.41008 85.09916 4.4037 84.65131 4.3907 84.20368 4.3907 83.75607 4.38409 83.30843 4.3907 82.85421 4.3907 82.40658 4.39708 81.95896 4.41008 81.51112 4.42308 81.06348 4.43608 80.61587 4.45546 80.16163 4.48146 79.71401 4.50744 79.26638 4.53344 78.81853 4.56582 78.37092 4.5982 77.92329 4.6372 77.47567 4.68258 77.02782 4.72795 76.5802 4.77333 76.13258 4.82533 75.69134 4.87732 75.24372 4.9357 74.79609 4.99406 74.34824 5.05882 73.90723 5.1302 73.45939 5.20157 73.01176 5.27295 72.57052 5.35093 72.1229 5.4353 71.68166 5.51945 71.24065 5.60382 70.79281 5.70118 70.3518 5.79194 69.91056 5.89592 69.46932 5.99307 69.02808 6.10344 68.58685 6.20718 68.14584 6.32417 67.7046 6.44092 67.26336 6.55766 66.82874 6.6808 66.3875 6.81077 65.95287 6.94053 65.51163 7.07666 65.07702 7.21303 64.64216 7.35577 64.20753 7.49852 63.77291 7.64764 63.40943 7.7774 63.06556 7.90075 62.72169 8.0239 62.38444 8.15364 62.04057 8.2834 61.70309 8.41314 61.36582 8.54289 61.02196 8.67926 60.68447 8.822 60.34699 8.95813 60.00974 9.10087 59.67225 9.25024 59.335 9.39937 58.9975 9.54873 58.66665 9.69786 58.32938 9.8536 57.9919 10.00935 57.66103 10.1651 57.32354 10.32722 56.99267 10.49597 56.66181 10.6581 56.33094 10.82684 55.99368 10.99557 55.6628 11.17071 55.3317 11.34584 55.00083 11.52096 54.67658 11.7027 54.34571 11.88444 54.01484 12.06595 53.69035 12.25407 53.35947 12.4422 53.035 12.63055 52.71073 12.82506 52.37963 13.0198 52.05538 13.22091 51.73089 13.41543 51.40664 13.61656 51.08852 13.82429 50.76427 14.0318 50.43978 14.23953 50.12191 14.45366 49.79743 14.66116 49.47956 14.8819 49.16167 15.096 48.8438 15.31651 48.52593 15.53702 48.20783 15.76414 47.88996 15.99125 47.57209 16.21837 47.2606 16.45187 46.94273 16.67898 46.63123 16.91911 46.31336 17.1526 46.00187 17.39273 45.6906 17.63284 45.37913 17.87935 45.06763 18.12584 44.75637 18.37234 44.45127 18.62545 44.14 18.87857 43.8349 19.13145 43.53004 19.38456 43.21854 19.64406 42.91367 19.90356 42.60879 20.16967 42.3103 20.43554 42.00542 20.70166 41.70032 20.96754 41.40183 21.24003 41.09696 21.51254 40.79847 21.78503 40.5002 22.06415 40.20171 22.34301 39.90322 22.62213 39.61134 22.90762 39.31284 23.19311 39.01437 23.4786 38.72225 23.77049 38.43038 24.06236 38.1385 24.35447 37.8464 24.64634 37.55451 24.94484 37.26264 25.24333 36.97715 25.54182 36.68504 25.84669 36.39954 26.15158 36.11405 26.45645 35.82879 26.76155 35.5433 27.07281 35.2578 27.3843 34.97231 27.69578 34.6932 28.01365 34.4077 28.33154 34.12882 28.64941 33.84971 28.96751 33.57084 29.29176 33.29195 29.61625 33.01946 29.94075 32.74035 30.265 32.46786 30.59587 32.18897 30.92674 31.91648 31.25761 31.64399 31.59509 31.37788 31.93258 31.10538 32.26983 30.83288 32.60731 30.56676 32.94458 30.3009 33.28845 30.03478 33.6323 29.7689 33.97618 29.50278 34.32666 29.2369 34.67692 28.97718 35.02717 28.71767 35.37765 28.45818 35.7279 28.19868 36.08478 27.93919 36.44163 27.6797 36.7985 27.42658 37.15538 27.16708 37.51863 26.91396 37.88211 26.66108 38.24536 26.40797 38.60861 26.15508 38.97209 25.90835 39.34195 25.65546 39.71159 25.40874 40.08145 25.16224 40.4513 24.91575 40.82118 24.66924 41.19743 24.42913 41.57367 24.18262 41.95015 23.94251 42.3264 23.7024 42.70926 23.4625 43.0855 23.22239 43.46837 22.98888 43.85101 22.75516 44.23387 22.51527 44.62312 22.28155 45.00598 22.04804 45.39523 21.82092 45.78447 21.58743 46.17372 21.3603 46.56297 21.13319 46.95244 20.90607 47.34807 20.67895 47.74392 20.45206 48.13318 20.23133 48.52903 20.0042 48.93129 19.7837 49.32692 19.5632 49.72278 19.34908 50.12501 19.12835 50.52726 18.91422 50.92312 18.69372 51.32536 18.4796 51.73399 18.27187 52.13624 18.05775 52.53848 17.85024 52.94734 17.63612 53.34958 17.42861 53.75844 17.22088 54.16707 17.01975 54.57592 16.81225 54.98456 16.61112 55.39341 16.40978 55.80865 16.20866 56.21728 16.00753 56.63252 15.8064 57.04138 15.6119 57.45663 15.41717 57.87187 15.22265 58.2871 15.02792 58.70234 14.83979 59.1176 14.64506 59.53283 14.45693 59.94784 14.2688 60.3697 14.08068 60.78494 13.89895 61.20657 13.71743 61.62181 13.52908 62.04367 13.34757 62.4653 13.17245 62.88716 12.9907 63.3024 12.81557 63.72403 12.64022 64.14564 12.4651 64.5675 12.28997 64.98913 12.12122 65.41098 11.9461 65.83923 11.77735 66.26085 11.60862 66.68248 11.44648 67.10434 11.27775 67.53257 11.11561 67.9542 10.95348 68.37605 10.79113 68.80406 10.63561 69.22592 10.47326 69.65416 10.31751 70.07579 10.16177 70.50403 10.00625 70.92589 9.8569 71.3539 9.70776 71.77575 9.55201 72.20399 9.40926 72.63223 9.26014 73.05386 9.1174 73.4821 8.97465 73.90371 8.8319 74.33197 8.68916 74.75381 8.54641 75.18205 8.41004 75.60368 8.2739 76.03192 8.13755 76.45355 8.00779 76.88179 7.87167 77.30365 7.74192 77.73166 7.61216 78.15352 7.4888 78.57513 7.35905 79.00338 7.2357 79.42523 7.11256 79.84686 6.9958 80.2751 6.87244 80.69673 6.75568 81.11857 6.63894 81.5402 6.52218 81.96206 6.41181 82.3837 6.29507 82.80554 6.1847 83.22717 6.08094 83.6488 5.97057 84.06404 5.86683 84.4859 5.76307 84.90753 5.6591 85.32277 5.55534 85.74463 5.45797 86.15986 5.3606 86.5751 5.26347 86.99673 5.17248 87.41197 5.08172 87.8272 4.99096 88.24246 4.89999 88.6577 4.80923 89.07293 4.72485 89.48156 4.64048 89.89682 4.55611 90.30566 4.49773 90.60415 4.40037 91.10377 4.30961 91.60316 4.21224 92.09639 4.12788 92.596 4.03712 93.089 3.95275 93.58223 3.87499 94.07522 3.797 94.56822 3.71925 95.06146 3.64126 95.54808 3.5701 96.03468 3.50512 96.5213 3.44013 97.00792 3.37537 97.49453 3.31039 97.97453 3.252 98.45477 3.20025 98.93477 3.14187 99.41499 3.09626 99.895 3.0445 100.36862 2.99912 100.84224 2.96014 101.31585 2.92113 101.78947 2.88238 102.2567 2.84977 102.73033 2.81739 103.19732 2.79139 103.65817 2.76539 104.12518 2.73963 104.5858 2.72001 105.04664 2.70063 105.50726 2.68763 105.96127 2.67464 106.41551 2.66825 106.86975 2.66164 107.32376 2.65525 107.7716 2.65525 108.21922 2.66164 108.66685 2.66164 109.10809 2.67464 109.5557 2.68102 109.99695 2.70063 110.43156 2.71363 110.8728 2.73301 111.30743 2.75901 111.73567 2.78501 112.17051 2.811 112.59854 2.84338 113.02678 2.87576 113.44862 2.91476 113.87025 2.96014 114.29211 2.99912 114.71374 3.0445 115.12898 3.09626 115.54422 3.14826 115.95308 3.20663 116.36831 3.265 116.77694 3.33 117.1792 3.39475 117.58143 3.45974 117.98369 3.53112 118.38592 3.60888 118.78178 3.68687 119.17764 3.76463 119.56689 3.84899 119.95614 3.93975 120.34538 4.03072 120.72825 4.12148 121.11088 4.21885 121.49374 4.31623 121.86999 4.41998 122.24647 4.53034 122.62272 4.64048 122.99258 4.75085 123.35583 4.8676 123.72569 4.98435 124.08896 5.10772 124.44581 5.23086 124.8093 5.3606 125.15954 5.49696 125.51642 5.6331 125.86667 5.76946 126.21715 5.91221 126.56102 6.05495 126.90489 6.20408 127.24214 6.35982 127.57963 6.51557 127.91688 6.67132 128.24798 6.83344 128.57885 7.00219 128.90973 7.17092 129.23398 7.33967 129.55209 7.5148 129.86996 7.69631 130.18783 7.87804 130.49933 8.06617 130.81057 8.2543 131.12207 8.44903 131.42694 8.64378 131.73205 8.84489 132.03032 9.04601 132.3288 9.25352 132.62091 9.46125 132.91278 9.67538 133.20466 9.88927 133.49016 10.11001 133.76927 10.33051 134.05476 10.55762 134.32725 10.79113 134.60614 11.02486 134.87863 11.25835 135.14474 11.50486 135.41063 11.74497 135.67674 11.99148 135.93623 12.24459 136.18934 12.49747 136.44883 12.7572 136.69534 13.0167 136.94845 13.28258 137.19496 13.54868 137.43507 13.82119 137.67495 14.10006 137.90869 14.37917 138.1422 14.65806 138.3757 14.94355 138.60281 15.23565 138.82992 15.52753 139.05043 15.82603 139.27116 16.12452 139.48529 16.42278 139.6994 16.73426 139.91353 17.04575 140.11465 17.35725 140.32216 17.67512 140.52328 17.99299 140.71801 18.31747 140.91914 18.64173 141.10727 18.97921 141.29538 19.31008 141.4835 19.64735 141.66525 19.99122 141.84675 20.33508 142.0221 20.68557 142.19725 21.03582 142.36598 21.3863 142.5345 21.74955 142.70324 22.1128 142.85899 22.47628 143.02112 22.84614 143.17686 23.21578 143.32621 23.59226 143.48196 23.9685 143.6247 24.35137 143.76722 24.74061 143.90997 25.12986 144.04634 25.51911 144.18246 25.91497 144.31245 26.3172 144.4422 26.71946 144.56534 27.12809 144.68869 27.53695 144.80545 27.94556 144.9222 28.36082 145.03895 28.78266 145.1427 29.20429 145.25306 29.63253 145.35682 30.06077 145.45419 30.4954 145.55795 30.93024 145.64892 31.37148 145.73968 31.81249 145.83044 32.26035 145.9148 32.70797 145.99917 33.16198 146.07716 33.61622 146.15492 34.07044 146.2263 34.53745 146.29767 34.9983 146.36905 35.46531 146.43403 35.93893 146.49241 36.41254 146.55078 36.89277 146.60916 37.37278 146.66092 37.853 146.70652 38.33962 146.7583 38.83262 146.79728 39.32584 146.84266 39.81886 146.87504 40.31846 146.91403 40.81808 146.94641 41.32407 146.97241 41.83668 146.99841 42.34267 147.0244 42.8553 147.04379 43.37429 147.05678 43.89329 147.07617 44.41889 147.08278 44.93789 147.09578 45.46989 147.10215 46.00187 147.10215 46.5341 147.10215 47.0661 147.09578 47.61108 147.09578 48.14945 147.08278 48.57131 147.07617 48.94117 147.06978 49.31081 147.05678 49.6873 147.04379 50.05692 147.03079 50.4334 147.01779 50.80965 147.00479 51.19251 146.98541 51.56876 146.96603 51.95162 146.94641 52.32787 146.92703 52.71073 146.90765 53.09998 146.88165 53.48261 146.86204 53.8721 146.83627 54.25472 146.80366 54.6442 146.7779 55.03344 146.7519 55.42269 146.7193 55.81832 146.68692 56.2078 146.65454 56.60343 146.62216 56.99929 146.58316 57.39492 146.54417 57.79078 146.51179 58.18664 146.46641 58.58889 146.42743 58.99113 146.38842 59.38676 146.34305 59.78924 146.29767 60.19785 146.25229 60.6001 146.20692 61.00234 146.16154 61.4112 146.10954 61.81983 146.06418 62.22208 146.01217 62.63094 145.96042 63.04618 145.9018 63.45481 145.85005 63.86367 145.79167 64.2789 145.73968 64.69415 145.6813 65.1094 145.61654 65.52464 145.55795 65.93987 145.49957 66.35513 145.43481 66.77036 145.36982 67.192 145.30505 67.61384 145.24006 68.02909 145.1687 68.4507 145.10394 68.87234 145.03256 69.2942 144.9612 69.72243 144.88981 70.14407 144.81845 70.5723 144.74707 70.99392 144.66908 71.42217 144.59132 71.85041 144.51356 72.27865 144.43557 72.70689 144.35782 73.13512 144.27984 73.56336 144.19546 73.9916 144.1111 74.42623 144.03334 74.86085 143.94258 75.28909 143.85821 75.72372 143.77383 76.15858 143.68309 76.5932 143.5987 77.02782 143.50773 77.46267 143.41697 77.8973 143.32621 78.33192 143.22885 78.77316 143.13809 79.20802 143.04072 79.64902 142.94973 80.08387 142.8526 80.52511 142.75523 80.96612 142.65147 81.40736 142.5541 81.8486 142.45036 82.28983 142.35298 82.73084 142.24923 83.17208 142.14525 83.61332 142.0415 84.05456 141.93774 84.50217 141.82737 84.94341 141.72363 85.38465 141.61326 85.83227 141.5029 86.2735 141.39276 86.72114 141.28239 87.16875 141.17202 87.61 141.06189 88.05761 140.94513 88.50524 140.82815 88.95309 140.71801 89.4007 140.60125 89.84194 140.48428 90.28957 140.36114 90.73719 140.2444 91.1848 140.12742 91.63267 140.00428 92.08028 139.88092 92.53452 139.76416 92.98214 139.64103 93.42977 139.51767 93.87739 139.38792 94.325 139.26455 94.77287 139.14142 95.22686 139.01167 95.67472 138.88192 96.12234 138.75216 96.56997 138.62219 97.0242 138.49244 97.47182 138.3627 97.91944 138.23294 98.37368 138.09681 98.8213 137.96707 99.26893 137.8307 99.71677 137.69456 100.17078 137.56482 100.61863 137.42846 101.06625 137.29233 101.52048 137.14958 101.9681 137.01321 102.41573 136.87709 102.86335 136.73434 103.31759 136.59158 103.7652 136.45523 104.21284 136.31248 104.66068 136.16974 105.1083 136.02699 105.55593 135.88424 106.00355 135.7351 106.4514 135.59236 106.89902 135.44323 107.34664 135.30049 107.79427 135.15112 108.24212 135.002 108.68974 134.85925 109.13737 134.70988 109.58498 134.56076 110.02622 134.40501 110.47384 134.25589 110.9217 134.10652 111.36271 133.95077 111.81055 133.80165 112.25156 133.6459 112.69941 133.49676 113.14042 133.34103 113.58166 133.18528 114.0229 133.02954 114.47051 132.87379 114.91175 132.71805 115.35299 132.56253 115.79423 132.40678 116.23524 132.24443 116.6701 132.08891 117.11134 131.92656 117.55235 131.77081 117.98719 131.60869 118.4282 131.44656 118.86306 131.28419 119.3043 131.12867 119.73891 130.96632 120.17355 130.8042 120.60839 130.63545 121.04302 130.47332 121.47764 130.31097 121.9125 130.14883 122.3405 129.9801 122.77537 129.81796 123.2036 129.64923 123.63822 129.48709 124.06646 129.31836 124.4947 129.14961 124.92295 128.98748 125.35119 128.81874 125.7792 128.65022 126.20744 128.48149 126.6293 128.31274 127.05753 128.144 127.47916 127.97549 127.9074 127.80674 128.32902 127.638 128.75088 127.46287 129.16611 127.29414 129.58775 127.119 130.0096 126.95027 130.42484 126.78152 130.84647 126.6064 131.26171 126.43127 131.67695 126.26252 132.0922 126.0874 132.50744 125.91227 132.91607 125.74353 133.3313 125.5684 133.74017 125.39305 134.1488 125.21792 134.55766 125.0428 134.96629 124.86767 135.37514 124.69232 135.784 124.5172 136.18624 124.34207 136.5885 124.16693 136.99073 123.9918 137.39297 123.81007 137.79522 123.63495 138.19746 123.45959 138.59333 123.28447 138.99557 123.10272 139.3912 122.9276 139.78706 122.74608 140.18269 122.57072 140.57217 122.38922 140.9678 122.21386 141.35705 122.03235 141.74651 121.85722 142.13576 121.67549 142.52502 121.50035 142.90787 121.31862 143.2905 121.13688 143.67998 120.96174 144.06261 120.78001 144.43887 120.5985 144.82172 120.42337 145.19797 120.24164 145.58083 120.05989 145.95708 119.87816 146.32694 119.70303 146.7032 119.52151 147.07307 119.33978 147.44955 119.15803 147.81918 118.97653 148.18903 118.79478 148.55251 118.61305 148.92216 118.43792 149.28564 118.25618 149.64889 118.07466 150.00574 117.89293 150.36901 117.7112 150.72587 117.52968 151.08274 117.34793 151.4396 117.1662 151.79647 116.98468 152.14672 116.80295 152.5036 116.6212 152.85407 116.4397 153.20432 116.25795 153.5482 116.07621 153.89207 115.89447 154.24255 115.71296 154.5798 115.53122 154.92367 115.34948 155.26754 115.16797 155.60502 114.98623 155.94228 114.80449 156.27316 114.62298 156.61063 114.44786 156.9415 114.26611 157.27238 114.08438 157.60325 113.90263 157.92773 113.72113 158.2586 113.53938 158.58286 113.35765 158.90734 113.17613 159.22523 112.9944 159.5497 112.81265 159.86758 112.63115 160.17907 112.45602 160.49694 112.27427 160.80843 112.09254 161.1197 111.91102 161.43118 111.72929 161.74267 111.54754 162.04754 111.37242 162.35265 111.19067 162.65752 111.00917 162.95602 110.82742 163.26089 110.6523 163.55938 110.47056 163.85126 110.28882 164.14974 110.11369 164.44163 109.93196 164.73373 109.75683 165.02561 109.57531 165.3111 109.39358 165.5966 109.21844 165.88209 109.03671 166.16758 108.86158 166.44646 108.67984 166.72558 108.50471 167.00445 108.32298 167.28356 108.14785 167.55605 107.97273 167.82854 107.79098 168.10105 107.61586 168.36694 107.44073 168.63943 107.26538 168.90554 107.08386 169.04166 106.99289 169.65803 106.57763 170.26801 106.1624 170.865 105.74716 171.44875 105.33853 172.02634 104.92328 172.59072 104.51443 173.1487 104.1058 173.6937 103.69694 174.23208 103.29469 174.75768 102.89245 175.2703 102.48382 175.7763 102.08796 176.26952 101.68571 176.75614 101.28347 177.22976 100.88762 177.69038 100.49199 178.14439 100.09613 178.58562 99.70688 179.02047 99.31102 179.4421 98.92177 179.85096 98.5389 180.25321 98.14966 180.64245 97.76703 181.02508 97.38417 181.39495 97.00131 181.75181 96.61844 182.1023 96.2422 182.43955 95.86595 182.77042 95.4897 183.0883 95.11982 183.3934 94.74997 183.69189 94.38011 183.97715 94.01024 184.25626 93.64699 184.52238 93.27713 184.78187 92.91388 185.02837 92.557 185.26188 92.20013 185.48899 91.83688 185.70312 91.4864 185.91062 91.12954 186.10535 90.77928 186.29348 90.4288 186.47523 90.07855 186.63735 89.73468 186.79948 89.39082 186.94222 89.04695 187.08497 88.70308 187.21473 88.36583 187.3317 88.02833 187.44184 87.69085 187.5392 87.35359 187.62997 87.02272 187.71433 86.69186 187.78571 86.36099 187.8507 86.0365 187.90908 85.712 187.95444 85.38775 187.98682 85.06326 188.01943 84.74539 188.03883 84.42091 188.05183 84.10965 188.05183 83.79155 188.0452 83.47368 188.0322 83.16218 188.00645 82.85092 187.97384 82.54582 187.93507 82.23456 187.88969 81.92946 187.8311 81.62459 187.77271 81.3261 187.70133 81.0212 187.62357 80.72271 187.53283 80.42424 187.44184 80.12597 187.33808 79.83386 187.22771 79.53537 187.11097 79.2435 186.98783 78.95161 186.85809 78.66612 186.72172 78.37402 186.57897 78.08853 186.42323 77.80302 186.2675 77.52415 186.09898 77.23866 185.93023 76.95978 185.7551 76.68066 185.56675 76.40179 185.37862 76.12268 185.1775 75.85019 184.97639 75.5713 184.76888 75.29881 184.55476 75.02632 184.33402 74.7602 184.10714 74.4877 183.8734 74.22183 183.6399 73.95572 183.3934 73.6896 183.1469 73.42372 182.89379 73.1576 182.63428 72.89811 182.3748 72.63223 182.10868 72.3725 181.8298 72.11961 181.5573 71.86012 181.27181 71.60063 180.98632 71.34752 180.69422 71.0944 180.40234 70.8415 180.09747 70.58839 179.79897 70.33528 179.48748 70.0824 179.17599 69.83568 178.86474 69.58917 178.54024 69.34268 178.22237 69.09617 177.8915 68.84967 177.56063 68.60295 177.22976 68.36305 176.89228 68.11633 176.55502 67.87645 176.21114 67.63632 175.86729 67.3962 175.5168 67.1627 175.16654 66.92259 174.80968 66.68908 174.4592 66.44897 174.13494 66.24147 173.73269 65.98198 173.33045 65.72224 172.9216 65.46936 172.51273 65.20987 172.09772 64.95675 171.68249 64.70364 171.26063 64.45076 170.84539 64.19764 170.42376 63.94453 169.99552 63.69803 169.56728 63.45152 169.13905 63.20503 168.71079 62.95852 168.28255 62.7118 167.84794 62.4719 167.4133 62.2318 166.97846 61.99168 166.54383 61.75157 166.10259 61.51167 165.66135 61.27795 165.22674 61.03805 164.7855 60.80433 164.34426 60.57083 163.89663 60.3437 163.4554 60.11021 163.0144 59.88308 162.56654 59.65597 162.12553 59.43547 161.68429 59.20836 161.23667 58.98762 160.79543 58.76712 160.34782 58.54661 159.90658 58.32588 159.45895 58.11175 159.01771 57.89764 158.57647 57.68351 158.12885 57.47601 157.68761 57.26188 157.24638 57.05438 156.80514 56.84665 156.36413 56.64552 155.92289 56.4444 155.48827 56.24328 155.04704 56.04216 154.61217 55.84742 154.17117 55.6463 153.73632 55.45817 153.30808 55.26367 152.87345 55.07531 152.43883 54.88719 152.01058 54.69906 151.58234 54.51754 151.1541 54.33581 150.73248 54.15407 150.30424 53.97894 149.8824 53.80381 149.46076 53.62869 149.04552 53.45994 148.62366 53.29121 148.20866 53.12246 147.7998 52.96034 147.38454 52.7982 146.97593 52.63585 146.56707 52.4801 146.16482 52.32458 145.75596 52.16885 145.35372 52.01948 144.95809 51.87036 144.56223 51.72761 144.16637 51.58487 143.77074 51.44212 143.3815 51.30575 142.99224 51.16961 142.60938 51.03987 142.22652 50.91012 141.84365 50.78038 141.46741 50.65701 141.09116 50.53387 140.72129 50.4105 140.35143 50.29376 139.98157 50.1834 139.61831 50.07303 139.25506 49.96289 138.89158 49.8589 138.53472 49.75515 138.18447 49.65779 137.8276 49.56064 137.48373 49.46327 137.13348 49.37251 136.7896 49.28814 136.45213 49.19716 136.11488 49.1194 135.77738 49.04142 135.44651 48.96367 135.11564 48.89229 134.79116 48.82092 134.4669 48.75615 134.1488 48.69116 133.83092 48.62617 133.51966 48.5678 133.20817 48.51603 132.89669 48.46405 132.5918 48.41867 132.29331 48.37329 131.98844 48.32791 131.69634 48.28892 131.40446 48.25654 131.11259 48.22394 130.8271 48.19156 130.54159 48.16556 130.2561 48.13955 129.9836 48.12018 129.70449 48.10717 129.432 48.09419 129.17912 48.08119 128.63413 48.0748 128.1019 48.0748 127.58291 48.0878 127.07691 48.12018 126.58392 48.16556 126.0973 48.21754 125.63006 48.28892 125.17583 48.37329 124.7282 48.46405 124.29359 48.57441 123.87173 48.69755 123.4631 48.8273 123.06724 48.97665 122.67799 49.1324 122.30175 49.30752 121.93827 49.48927 121.5814 49.68377 121.24415 49.8849 120.90665 50.10563 120.58878 50.33275 120.27091 50.56625 119.97242 50.81913 119.68053 51.07225 119.39504 51.34474 119.12255 51.62385 118.85644 51.90934 118.59695 52.20761 118.35044 52.51271 118.11033 52.82397 117.87682 53.14207 117.65632 53.47294 117.4422 53.81021 117.23447 54.15407 117.03335 54.50456 116.83883 54.86142 116.65049 55.21806 116.46897 55.58792 116.29362 55.9644 116.1251 56.34065 115.96275 56.72328 115.80723 57.11276 115.65787 57.502 115.51513 57.89764 115.37899 58.29988 115.24262 58.69574 115.1195 59.1046 114.99613 59.50683 114.87937 59.91546 114.76263 60.32432 114.65226 60.73958 114.5549 61.14819 114.45113 61.56344 114.36037 61.97868 114.2694 62.39392 114.18502 62.80278 114.12026 63.14004 114.02929 63.64627 113.94514 64.13926 113.86715 64.63888 113.79578 65.13188 113.7374 65.6251 113.67902 66.11172 113.63364 66.59172 113.59466 67.07196 113.56228 67.54558 113.53628 68.0192 113.52328 68.47981 113.5169 68.94043 113.52328 69.38804 113.53628 69.83568 113.56228 70.27691 113.59466 70.70515 113.64004 71.12701 113.69842 71.54225 113.7634 71.95088 113.84116 72.35312 113.93214 72.74237 114.0359 73.12523 114.15264 73.4951 114.2824 73.85835 114.42515 74.2152 114.58088 74.55908 114.75602 74.88995 114.93775 75.21443 115.13888 75.52592 115.35299 75.83081 115.58012 76.12268 115.82 76.40179 116.07972 76.67428 116.35223 76.92717 116.63749 77.1739 116.94259 77.41379 117.26046 77.63452 117.59772 77.84863 117.94158 78.04315 118.30506 78.23127 118.68131 78.40663 119.07717 78.56875 119.47942 78.71788 119.90104 78.85425 120.3359 78.97738 120.76391 79.08775 121.14677 79.17212 121.53602 79.2435 121.93188 79.30826 122.33413 79.36685 122.74937 79.41223 123.1646 79.451 123.58623 79.477 124.02108 79.49661 124.45571 79.50299 124.89034 79.50299 125.33819 79.48999 125.7858 79.47061 126.23344 79.44461 126.68766 79.40562 127.14167 79.35386 127.59591 79.29548 128.05015 79.2241 128.51076 79.14613 128.965 79.06175 129.419 78.96438 129.86686 78.85425 130.32087 78.7375 130.7621 78.60774 131.20333 78.47139 131.63796 78.32225 132.0728 78.1665 132.49444 77.99777 132.90969 77.82264 133.3183 77.63452 133.72079 77.43977 134.11642 77.23227 134.49267 77.01816 134.86915 76.79103 135.226 76.55754 135.57626 76.31741 135.91375 76.0643 136.238 75.79841 136.54288 75.52592 136.84138 75.24682 137.12048 74.95494 137.38636 74.65645 137.6331 74.35157 137.85998 74.03347 138.0741 73.70921 138.26884 73.37834 138.45057 73.03447 138.60609 72.68399 138.74883 72.33374 138.86582 71.96388 138.96957 71.594 139.04732 71.21776 139.1057 70.82852 139.13831 70.43927 139.15769 70.03702 139.15108 69.62817 139.14469 69.56318 139.1317 69.32968 139.1057 69.08957 139.07333 68.84306 139.03434 68.60295 138.98896 68.35644 138.93719 68.10356 138.8786 67.85682 138.80721 67.60394 138.72945 67.35083 138.64509 67.09771 138.55433 66.84483 138.45696 66.58534 138.3466 66.32583 138.22985 66.06611 138.10671 65.80662 137.97695 65.54712 137.8406 65.28123 137.69785 65.02174 137.5421 64.75563 137.37998 64.48951 137.21123 64.22363 137.03611 63.95752 136.85436 63.68503 136.65986 63.41914 136.46513 63.14665 136.25762 62.88054 136.0435 62.60804 135.82276 62.33555 135.58926 62.06967 135.35575 61.79718 135.11564 61.52467 134.86253 61.25195 134.60303 60.98607 134.34353 60.71357 134.07104 60.44108 133.79215 60.16858 133.50666 59.90248 133.21456 59.62997 132.91607 59.36409 132.6048 59.0916 132.29331 58.82548 131.97544 58.5596 131.65096 58.2935 131.3137 58.02739 130.97622 57.7615 130.63235 57.49539 130.2821 57.2359 129.92522 56.97639 129.56174 56.7105 129.19212 56.4574 128.81564 56.1979 128.433 55.9384 128.04353 55.68528 127.65429 55.43217 127.25204 55.17929 126.8498 54.9328 126.44117 54.68606 126.02592 54.43956 125.60407 54.19307 125.18244 53.95295 124.7476 53.71283 124.31297 53.47294 123.87173 53.23921 123.43049 53.00572 122.97648 52.77221 122.52225 52.54509 122.06802 52.31798 121.6074 52.09747 121.14039 51.87674 120.66677 51.65623 120.19315 51.44212 119.71293 51.228 119.22631 51.02049 118.7397 50.81276 118.25307 50.60525 117.76008 50.4105 117.26046 50.2094 116.76086 50.01465 116.25484 49.82014 115.74862 49.6384 115.24262 49.45027 114.73002 49.26854 114.21102 49.09341 113.69202 48.91829 113.17303 48.74316 112.64742 48.57441 112.12182 48.41229 111.59643 48.24992 111.06445 48.09419 110.53222 47.94505 110.00022 47.7893 109.46185 47.64656 108.92324 47.50381 108.38486 47.36767 107.84626 47.23132 107.69712 47.19894 107.23627 47.08857 106.77566 46.97821 106.31504 46.87445 105.84803 46.77708 105.38718 46.67994 104.92017 46.58258 104.45295 46.48521 103.98594 46.40083 103.51871 46.31007 103.05148 46.2257 102.58448 46.14772 102.11724 46.06996 101.65023 45.9922 101.17661 45.92083 100.70939 45.85585 100.24215 45.79109 99.77515 45.7261 99.30154 45.66772 98.8343 45.60934 98.36729 45.55735 97.89344 45.5056 97.42644 45.4536 96.9592 45.41461 96.49221 45.36923 96.0186 45.33023 95.55135 45.29785 95.08411 45.26547 94.61712 45.23309 94.1565 45.2071 93.68926 45.1811 93.22225 45.16173 92.7614 45.14872 92.29441 45.12912 91.83378 45.12272 91.37293 45.10972 90.91232 45.10972 90.4517 45.10334 89.99108 45.10334 89.53684 45.10972 89.07623 45.11635 88.62222 45.12272 88.16798 45.13572 87.71375 45.1551 87.26612 45.1681 86.81188 45.1941 86.36427 45.21348 85.91665 45.24609 85.46879 45.27186 85.02117 45.30447 84.57993 45.34323 84.13892 45.38223 83.69769 45.42122 83.25645 45.4666 82.82183 45.51198 82.38697 45.56396 81.95235 45.61574 81.5241 45.66772 81.08948 45.7261 80.66125 45.78447 80.23962 45.84945 79.81138 45.91421 79.38952 45.9856 78.97428 46.05696 78.55265 46.12834 78.13741 46.20633 77.72218 46.28409 77.31332 46.36845 76.90469 46.45283 76.49583 46.5372 76.09357 46.62796 75.68496 46.7187 75.28909 46.80969 74.88685 46.90683 74.49099 47.0042 74.10174 47.10818 73.7125 47.21194 73.32325 47.31569 72.934 47.41945 72.55114 47.52981 72.16828 47.64656 71.79203 47.75692 71.41578 47.87368 71.04592 47.99704 70.67605 48.1138 70.30619 48.23694 69.94294 48.36668 69.57969 48.49005 69.21621 48.6198 68.85934 48.74954 68.50909 48.8859 68.15884 49.02203 67.80836 49.1584 67.46448 49.29454 67.12061 49.43728 66.77674 49.58003 66.43949 49.72915 66.10862 49.8719 65.77752 50.02127 65.44665 50.17039 65.12238 50.31975 64.7979 50.47526 64.48003 50.63101 64.16216 50.78676 63.85067 50.94911 63.53918 51.10463 63.2343 51.26698 62.92944 51.42912 62.63094 51.59785 62.33245 51.75999 62.03396 51.92872 61.74207 52.09747 61.45658 52.26599 61.4112 52.29197 60.9116 52.59709 60.41836 52.90196 59.93175 53.21983 59.45814 53.5377 58.99113 53.85559 58.53689 54.18007 58.09565 54.50456 57.66103 54.83543 57.2328 55.16629 56.81754 55.50355 56.4153 55.84103 56.01945 56.1849 55.6302 56.52878 55.25394 56.87265 54.8907 57.2229 54.53384 57.57338 54.18336 57.92363 53.84609 58.2741 53.52161 58.63098 53.20373 58.98762 52.89225 59.34448 52.59376 59.70135 52.30187 60.05821 52.023 60.42169 51.7505 60.77833 51.49078 61.14181 51.23128 61.50506 50.99139 61.86831 50.75127 62.22519 50.52416 62.58867 50.31004 62.95192 50.09592 63.30877 49.9014 63.67202 49.70667 64.0355 49.52493 64.39238 49.34342 64.74925 49.18107 65.10588 49.01893 65.46275 48.8698 65.81961 48.72706 66.1701 48.59069 66.52696 48.46094 66.87721 48.3442 67.22748 48.23383 67.57133 48.13007 67.9152 48.0327 68.25908 47.94195 68.60295 47.85758 68.94043 47.7862 69.2779 47.71484 69.60878 47.65646 69.94604 47.60447 70.27052 47.55909 70.60139 47.51371 70.91926 47.48133 71.24376 47.45533 71.56163 47.43595 71.87312 47.42295 72.18438 47.41634 72.48948 47.41634 72.79435 47.42295 73.09285 47.43595 73.39134 47.45533 73.68321 47.46172 73.77397 47.5071 74.2152 47.5657 74.64984 47.63708 75.07168 47.72784 75.48694 47.8252 75.89557 47.94195 76.29142 48.0717 76.67428 48.21444 77.04391 48.37658 77.40739 48.54531 77.75766 48.73344 78.09514 48.93456 78.426 49.1423 78.74388 49.3692 79.04875 49.6093 79.34086 49.86242 79.61975 50.1283 79.89224 50.4138 80.14535 50.7059 80.39184 51.01078 80.61897 51.32865 80.83947 51.66613 81.04721 52.01 81.23533 52.36686 81.41707 52.7365 81.58558 53.11936 81.73495 53.51522 81.8777 53.91747 82.00744 54.33909 82.11781 54.76733 82.21495 55.20196 82.30594 55.6562 82.3773 56.11681 82.43568 56.58405 82.48106 57.06405 82.51344 57.55067 82.53282 58.04389 82.53282 58.54989 82.52644 59.05589 82.50044 59.57511 82.46168 60.0875 82.40968 60.48974 82.3577 60.89198 82.29931 61.30083 82.23456 61.7097 82.15657 62.12495 82.0722 62.53356 81.98144 62.94242 81.8777 63.35767 81.76733 63.7663 81.65057 64.17515 81.52083 64.58378 81.38446 64.99264 81.24171 65.39489 81.0862 65.79713 80.92384 66.19276 80.74872 66.58862 80.56698 66.97149 80.37886 67.35412 80.17773 67.73698 79.9766 68.10683 79.7561 68.4701 79.52899 68.82696 79.29548 69.17744 79.05537 69.5147 78.80226 69.85218 78.53637 70.17005 78.27026 70.48154 77.99138 70.78641 77.70588 71.0783 77.40739 71.3574 77.10252 71.62328 76.79103 71.88279 76.46655 72.1229 76.13568 72.35001 75.79841 72.56414 75.44793 72.76527 75.09768 72.95339 74.7342 73.12212 74.35795 73.27787 73.9817 73.42062 73.59884 73.53736 73.20298 73.64773 72.80075 73.73849 72.39212 73.80987 71.97686 73.86185 71.55502 73.90063 71.12701 73.92023 70.69215 73.92023 70.25752 73.90063 69.8099 73.86185 69.35566 73.80325 68.90144 73.73188 68.44081 73.63474 67.97381 73.59574 67.79207 73.51798 67.49357 73.44 67.1951 73.34925 66.8966 73.25187 66.59834 73.14812 66.29323 73.03136 65.98835 72.91439 65.68986 72.78464 65.37837 72.6549 65.0735 72.50576 64.76863 72.3564 64.45714 72.20089 64.15226 72.03214 63.84077 71.8634 63.5359 71.68166 63.22441 71.49354 62.91292 71.29903 62.60165 71.09791 62.29655 70.89017 61.98529 70.66967 61.67381 70.44894 61.36892 70.21543 61.05745 69.98193 60.75256 69.73544 60.44746 69.48232 60.14259 69.22282 59.8377 68.96333 59.53283 68.69082 59.23434 68.41172 58.93585 68.12623 58.63736 67.83434 58.33886 67.54247 58.04039 67.23736 57.7485 66.92611 57.45663 66.61462 57.17112 66.29012 56.88563 65.96587 56.60014 65.63477 56.32104 65.29752 56.04216 64.95365 55.76967 64.60317 55.49716 64.24653 55.22467 63.88966 54.95855 63.52618 54.69906 63.15655 54.43956 62.78007 54.18644 62.40382 53.93356 62.02096 53.68707 61.6317 53.44696 61.23585 53.20683 60.84022 52.97334 60.43798 52.7396 60.03573 52.5191 59.62687 52.2986 59.21163 52.08447 58.7964 51.87036 58.37476 51.66923 57.9529 51.4681 57.5249 51.27337 57.09005 51.08525 56.65542 50.90352 56.2208 50.722 55.77956 50.55325 55.33833 50.39113 54.8907 50.22877 54.44285 50.07963 53.98884 49.93028 53.5346 49.79414 53.08038 49.65779 52.62637 49.53465 52.15913 49.41128 51.69851 49.30114 51.23789 49.19716 50.77065 49.09979 50.29704 49.00903 49.83004 48.92466 49.35642 48.8469 48.88258 48.78192 48.40896 48.71716 47.93534 48.66517 47.45533 48.6198 46.9751 48.58741 46.4951 48.5548 46.01487 48.53541 45.6906 48.52903 45.35975 48.52243 45.03526 48.52243 44.70438 48.52243 44.3799 48.52903 44.04903 48.53541 43.71816 48.5548 43.38729 48.5678 43.05642 48.5938 42.73193 48.6198 42.40105 48.64578 42.07018 48.68478 41.73931 48.72354 41.40183 48.76254 41.07096 48.80792 40.74009 48.8599 40.40922 48.91166 40.07835 48.97665 39.74747 49.03503 39.41 49.10641 39.07912 49.17778 38.74825 49.24916 38.41099 49.33352 38.08012 49.41789 37.74924 49.50227 37.41177 49.59941 37.0809 49.69677 36.75002 49.79414 36.41254 49.90451 36.08167 50.01465 35.7508 50.12501 35.41354 50.24177 35.08245 50.36512 34.74519 50.49489 34.41431 50.62463 34.08344 50.76075 33.74596 50.90352 33.41509 51.04626 33.08422 51.202 32.74674 51.35136 32.41587 51.51349 32.085 51.67561 31.74773 51.84436 31.41686 52.0131 31.08599 52.18823 30.74851 52.36996 30.41764 52.55148 30.08677 52.74621 29.7559 52.94096 29.42503 53.13546 29.09415 53.33659 28.76328 53.54432 28.43218 53.75844 28.10131 53.97256 27.77044 54.19307 27.43957 54.42018 27.1087 54.6473 26.77782 54.8808 26.44695 55.12092 26.12247 55.3608 25.7916 55.60753 25.46073 55.86041 25.13624 56.11354 24.80538 56.3794 24.48112 56.63914 24.15025 56.91163 23.82575 57.18413 23.50127 57.46301 23.17701 57.74212 22.85253 58.02739 22.52804 58.31949 22.20379 58.61137 21.8793 58.90986 21.55505 59.21473 21.23693 59.52623 20.91268 59.8377 20.59481 60.1492 20.27032 60.47346 19.95245 60.79794 19.63457 61.1222 19.31647 61.45968 18.9986 61.79056 18.68073 62.13443 18.36924 62.4783 18.05137 62.82878 17.73988 63.17903 17.42861 63.5359 17.11712 63.89915 16.80564 64.26263 16.49415 64.63226 16.18928 65.00874 15.87778 65.38499 15.57291 65.76124 15.26803 66.15048 14.96316 66.53973 14.66467 66.92921 14.35957 67.32484 14.0613 67.72708 13.76281 68.12933 13.47071 68.53157 13.17245 68.9468 12.88033 69.36206 12.58846 69.7773 12.29635 70.19915 12.01109 70.62079 11.71899 71.05563 11.43348 71.48364 11.15461 71.9185 10.86912 72.35974 10.59 72.80075 10.31751 73.24199 10.03863 73.69621 9.76614 74.14384 9.49364 74.59807 9.22753 75.0587 8.96165 75.51931 8.69553 75.98654 8.43604 76.45355 8.17654 76.92079 7.92342 77.3944 7.67054 77.86802 7.41743 78.34802 7.17092 78.82824 6.92443 79.31486 6.68432 79.80148 6.48957 80.19711 6.32745 80.53459 6.16532 80.87846 6.00295 81.21595 5.84722 81.55981 5.6917 81.90368 5.53596 82.24756 5.38021 82.5978 5.23086 82.94168 5.07534 83.29193 4.92597 83.6424 4.78323 83.99267 4.6341 84.34315 4.49136 84.70001 4.34861 85.05688 4.21224 85.40713 4.0761 85.764 3.93975 86.12086 3.80361 86.47773 3.67387 86.84099 3.54412 87.19786 3.41436 87.56111 3.29101 87.92459 3.16764 88.28784 3.0445 88.65109 2.92776 89.01457 2.811 89.37782 2.69402 89.74768 2.58389 90.11093 2.47352 90.4808 2.36315 90.84405 2.25939 91.21391 2.15565 91.58377 2.05828 91.95364 1.9609 92.32989 1.86353 92.69975 1.77277 93.06962 1.68203 93.44586 1.59765 93.81573 1.51328 94.19198 1.42892 94.56822 1.35116 94.9447 1.27978 95.32095 1.20179 95.6972 1.13042 96.07345 1.06567 96.44993 1.00068 96.82617 0.9423 97.20242 0.87754 97.57867 0.82554 97.96153 0.77355 98.33778 0.7218 98.72065 0.67641 99.09689 0.6308 99.47976 0.59205 99.856 0.55944 100.23887 0.52706 100.61512 0.49468 100.99798 0.46868 101.38084 0.44268 101.76347 0.4233 102.13995 0.4103 102.52258 0.3973 102.90545 0.38432 103.28831 0.37792 103.66456 0.37792 104.04742 0.37792 104.43005 0.38432 104.81291 0.39092 105.18916 0.40392 105.57203 0.4233 105.95489 0.44268 106.33775 0.46229 106.714 0.49468 107.09686 0.52706 107.47949 0.55944 107.85597 0.59843 108.2386 0.6438 108.61508 0.68919 108.99772 0.74117 109.37396 0.79316 109.75683 0.85793 110.13307 0.9163 110.50955 0.98768 110.8922 1.05904 111.26866 1.13703 111.64491 1.21479 112.02116 1.29916 112.39741 1.38992 112.7739 1.4809 113.14375 1.57827 113.52 1.68203 113.89625 1.78577 114.26611 1.89614 114.64236 2.0129 115.01223 2.13604 115.3821 2.25939 115.75195 2.38276 116.1216 2.5189 116.49145 2.65525 116.86133 2.798 117.23118 2.94714 117.59443 3.09626 117.9643 3.252 118.32756 3.41436 118.69104 3.58288 119.05429 3.75162 119.41754 3.92675 119.78102 4.10848 120.14427 4.29023 120.50113 4.48473 120.858 4.67948 121.22125 4.87421 121.57173 5.08172 121.9286 5.28922 122.28523 5.50335 122.63571 5.72408 122.99258 5.94459 123.34283 6.17832 123.69331 6.41181 124.04358 6.65194 124.38743 6.89182 124.73793 7.13854 125.08178 7.39805 125.42566 7.65093 125.76953 7.91705 126.10678 8.18954 126.45065 8.46203 126.78813 8.74091 127.1254 9.0264 127.46287 9.3119 127.79374 9.61039 128.12462 9.90888 128.45549 10.21375 128.78636 10.52525 129.11723 10.83674 129.44172 11.15461 129.76597 11.48548 130.09047 11.80973 130.41494 12.14722 130.73282 12.49108 131.05731 12.83495 131.37518 13.1852 131.68644 13.54208 132.00454 13.89895 132.31581 14.2688 132.62729 14.63866 132.93217 15.01492 133.23727 15.39779 133.54214 15.78065 133.84703 16.17628 134.15213 16.57214 134.45039 16.97437 134.74888 17.383 135.04098 17.79186 135.33925 18.20711 135.63136 18.62873 135.91685 19.05697 136.20872 19.49183 136.49421 19.92644 136.7797 20.36768 137.05859 20.81532 137.3377 21.26954 137.61657 21.72355 137.89569 22.19079 138.16818 22.6578 138.44069 23.12502 138.70656 23.60525 138.97906 24.08526 139.24518 24.57188 139.50467 25.0585 139.76416 25.5581 140.02366 26.05772 140.28315 26.56371 140.53627 27.07632 140.78938 27.58894 141.03589 28.10793 141.28239 28.63331 141.52888 29.15891 141.769 29.69091 142.00912 30.22951 142.24923 30.63177 142.42436 31.00162 142.58648 31.37148 142.74223 31.74113 142.89798 32.1176 143.05372 32.49386 143.20947 32.8701 143.3586 33.25297 143.51434 33.63583 143.66346 34.01846 143.81283 34.40131 143.96196 34.79057 144.1047 35.17982 144.25384 35.57568 144.39659 35.96491 144.53933 36.36077 144.68208 36.76302 144.82483 37.15865 144.96757 37.5609 145.10394 37.96337 145.24669 38.36561 145.38281 38.77424 145.51918 39.1831 145.64892 39.59173 145.78506 40.00697 145.9148 40.41582 146.04455 40.83108 146.17431 41.24631 146.30429 41.66795 146.43403 42.08956 146.55717 42.51142 146.68054 42.93305 146.80366 43.35491 146.92703 43.78315 147.0504 44.21116 147.16714 44.6394 147.29028 45.07424 147.40704 45.5025 147.52401 45.93711 147.63415 46.37174 147.7509 46.81298 147.86126 47.2476 147.97163 47.68883 148.082 48.13007 148.19214 48.57131 148.2959 49.01255 148.40626 49.46017 148.51002 49.9078 148.614 50.35542 148.71776 50.80303 148.81512 51.2509 148.91887 51.7049 149.01625 52.15913 149.11361 52.61336 149.20436 53.06738 149.30174 53.52161 149.39248 53.97584 149.48324 54.43647 149.57423 54.89709 149.66499 55.3577 149.75573 55.81832 149.84012 56.27917 149.92448 56.74618 150.00885 57.2068 150.09323 57.67403 150.17099 58.14126 150.25535 58.60827 150.33334 59.0755 150.4111 59.54911 150.48246 60.01612 150.56045 60.48974 150.6316 60.95698 150.70297 61.4306 150.77435 61.90421 150.84572 62.37783 150.91072 62.85145 150.97548 63.33167 151.04046 63.80529 151.10545 64.2789 151.17021 64.7589 151.22859 65.23914 151.28695 65.71276 151.34533 66.19276 151.40371 66.673 151.4621 67.15299 151.51408 67.63322 151.56607 68.11323 151.61783 68.59985 151.66983 69.08007 151.7152 69.56008 151.7672 70.04668 151.81257 70.52692 151.85795 71.01354 151.89694 71.49354 151.94232 71.98016 151.9813 72.46677 152.02008 72.947 152.05906 73.43362 152.09144 73.92023 152.13044 74.40023 152.16282 74.88685 152.19543 75.37347 152.2212 75.86008 152.25381 76.34669 152.27957 76.8333 152.30557 77.31992 152.33157 77.79993 152.35756 78.28654 152.37694 78.77316 152.39656 79.25977 152.41594 79.74639 152.43532 80.22662 152.45492 80.71323 152.46792 81.19985 152.48092 81.68647 152.4937 82.16647 152.5067 82.65308 152.5133 83.1397 152.5263 83.6197 152.53268 84.10632 152.5393 84.58654 152.5393 85.07316 152.54568 85.55317 152.54568 86.0334 152.54568 86.52001 152.54568 87 152.5393 87.48025 152.53268 87.96024 152.53268 88.44048 152.51968 88.92048 152.5133 89.3941 152.5067 89.87432 152.4937 90.35433 152.48092 90.82795 152.46792 91.3018 152.44832 91.78179 152.43532 92.25541 152.41594 92.72903 152.39656 93.20264 152.37056 93.67626 152.35095 94.1435 152.32518 94.61712 152.29919 95.08411 152.27319 95.55135 152.24719 96.02497 152.21481 96.49221 152.18882 96.95283 152.15643 97.41982 152.11744 97.88706 152.08506 98.34768 152.04606 98.8083 152.01368 99.26893 151.9747 99.72977 151.92932 100.19039 151.89033 100.6444 151.84495 101.10525 151.79957 101.55926 151.7542 102.01348 151.70881 102.46772 151.65683 102.91534 151.61145 103.36958 151.55946 103.8172 151.50769 104.26482 151.44932 104.71244 151.39732 105.15368 151.33896 105.60131 151.28058 106.04255 151.2222 106.48379 151.15721 106.92501 151.09883 107.35964 151.03407 107.79427 150.96908 108.22912 150.9041 108.66375 150.83296 109.09837 150.76158 109.5266 150.69659 109.95484 150.62521 110.3831 150.54747 110.81133 150.47609 111.23295 150.3981 111.65481 150.32034 112.07644 150.24235 112.49168 150.1646 112.91354 150.08023 113.32877 150.00247 113.7374 149.9181 114.15264 149.83372 114.5615 149.74936 114.97013 149.6586 115.37238 149.56761 115.78123 149.47686 116.18348 149.3861 116.57911 149.29512 116.98136 149.20436 117.37722 149.10699 117.77308 149.00963 118.16232 148.91249 118.55795 148.81512 118.94082 148.71113 119.33006 148.614 119.71293 148.51002 120.09579 148.40626 120.47842 148.3025 120.8549 148.19214 121.23115 148.08839 121.6074 147.97802 121.97726 147.86789 122.34711 147.75752 122.71699 147.64715 123.08024 147.5304 123.44349 147.41365 123.80035 147.2969 124.16383 147.18014 124.5207 147.06317 124.87095 146.94641 125.22121 146.82329 125.5717 146.69992 125.92194 146.57678 126.26582 146.45341 126.60967 146.33004 126.94717 146.2003 127.28442 146.07716 127.62191 145.94742 127.95278 145.81767 128.28364 145.6877 128.60813 145.55156 128.9324 145.42181 129.25687 145.28544 129.58137 145.14932 129.89924 145.01295 130.21073 144.87681 130.52198 144.73407 130.83347 144.59771 131.14497 144.45497 131.44984 144.31245 131.74833 144.1697 132.0532 144.02694 132.35169 143.87759 132.64358 143.73485 132.93568 143.58572 133.22756 143.43635 133.51305 143.28723 133.79855 143.13809 134.07743 142.98874 134.35653 142.83299 134.63541 142.67724 134.9079 142.52812 135.1804 142.37237 135.44651 142.21663 135.71262 142.0545 135.97851 141.89876 136.238 141.73662 136.49111 141.58088 136.75062 141.41874 137.00373 141.25639 137.25022 141.09427 137.49673 140.92552 137.74323 140.7634 137.98334 140.59465 138.22346 140.43252 138.45696 140.26378 138.69047 140.09503 138.91758 139.9263 139.14469 139.75778 139.37182 139.58243 139.59232 139.4139 139.81306 139.23855 140.02717 139.06343 140.2413 138.89468 140.25407 138.88192 140.6953 138.50544 141.13015 138.1292 141.5454 137.74634 141.95402 137.36369 142.34988 136.97423 142.72613 136.58497 143.096 136.18934 143.45286 135.79348 143.79673 135.39763 144.1276 134.989 144.43887 134.58674 144.74396 134.1779 145.03585 133.76927 145.32134 133.35402 145.58746 132.93878 145.84034 132.51692 146.08683 132.0953 146.31396 131.67367 146.53469 131.25181 146.7358 130.82358 146.93032 130.39534 147.11205 129.9671 147.2808 129.53247 147.44292 129.09785 147.58567 128.66299 147.72204 128.22838 147.84518 127.79374 147.95554 127.3525 148.05929 126.91127 148.15005 126.47665 148.22803 126.03541 148.2928 125.59417 148.35117 125.14656 148.39678 124.70532 148.43554 124.26431 148.45515 123.82307 148.47453 123.37544 148.47453 122.9342 148.46815 122.49296 148.45515 122.05172 148.42916 121.60411 148.39678 121.16287 148.35117 120.72163 148.2994 120.28062 148.23441 119.83938 148.16305 119.40454 148.08529 118.96353 147.99453 118.52867 147.89716 118.09405 147.7934 117.65942 147.67643 117.22458 147.55968 116.79634 147.42992 116.3617 147.28718 115.93347 147.14443 115.51184 146.99531 115.0836 146.83317 114.66174 146.67081 114.24012 146.49569 113.82487 146.32056 113.40963 146.13244 112.9944 145.94431 112.58577 145.74296 112.1769 145.54185 111.77466 145.33434 111.37242 145.12022 110.97017 144.89971 110.5743 144.67898 110.17868 144.44547 109.78921 144.21197 109.40657 143.97825 109.02371 143.73174 108.64085 143.48524 108.2646 143.23875 107.89474 142.98563 107.52487 142.72613 107.16162 142.46664 106.80476 142.20052 106.44789 141.93464 106.09764 141.66853 105.74716 141.39603 105.40329 141.12354 105.06602 140.85105 104.72854 140.57217 104.39767 140.29305 104.07342 140.00756 103.7553 139.72868 103.43744 139.44318 103.12596 139.15769 102.82107 138.8722 102.52258 138.58671 102.22432 138.30122 101.93222 138.01572 101.64673 137.73023 101.36784 137.44474 101.09535 137.15925 100.82286 136.87399 100.55674 136.5885 100.29724 136.30299 100.04413 136.02389 99.79764 135.7384 99.55752 135.45951 99.31762 135.1804 99.09051 134.90153 98.8634 134.62902 98.64927 134.35653 98.43515 134.08404 98.22764 133.81792 98.02653 133.55204 97.8254 133.28593 97.63705 133.02644 97.45553 132.76693 97.28041 132.50744 97.10505 132.25433 96.94293 132.00782 96.7808 131.76133 96.62506 131.52122 96.48231 131.28109 96.33957 131.0476 96.2032 130.8141 96.07345 130.58697 95.95031 130.36623 95.83357 130.14573 95.7232 129.93162 95.61944 129.72411 95.52208 129.62012 95.4767 129.1335 95.26896 128.67951 95.09384 128.24465 94.95747 127.84902 94.85373 127.47916 94.78895 127.13529 94.74997 126.8304 94.74997 126.55791 94.77597 126.3178 94.83433 126.11007 94.92509 125.92855 95.04185 125.7858 95.1846 125.67544 95.35995 125.59768 95.55446 125.54569 95.77519 125.53269 96.01507 125.54569 96.28119 125.59107 96.56007 125.66906 96.86517 125.7728 97.18304 125.90894 97.51391 126.06469 97.85779 126.25282 98.22104 126.46055 98.5909 126.70066 98.96715 126.95354 99.35 127.23904 99.73926 127.53753 100.13511 127.86202 100.53737 128.19927 100.933 128.55614 101.32885 128.926 101.72471 129.30886 102.12034 129.71111 102.5096 130.11974 102.88606 130.54159 103.26231 130.96984 103.62556 131.41085 103.98243 131.85209 104.3263 132.2997 104.65078 132.74755 104.96866 133.20156 105.26715 133.6558 105.55264 134.11004 105.81852 134.56403 106.07164 135.0119 106.29876 135.4529 106.51288 135.88775 106.701 136.32238 106.87613 136.74422 107.0255 137.15925 107.15524 137.37336 107.2136 137.93797 107.34337 138.47634 107.42773 138.98896 107.47311 139.47556 107.47311 139.9362 107.43411 140.35804 107.34974 140.75367 107.233 141.11054 107.07725 141.43504 106.88913 141.72053 106.66862 141.97341 106.42189 142.18752 106.1494 142.36288 105.85113 142.49902 105.53964 142.60278 105.21516 142.66114 104.87129 142.68714 104.52742 142.67414 104.17717 142.62238 103.8333 142.5314 103.48282 142.40826 103.14557 142.2459 102.82107 142.0514 102.5162 141.8179 102.22432 141.5454 101.95822 141.24691 101.71809 140.90942 101.51059 140.53956 101.32885 140.1373 101.18611 139.70269 101.08874 139.23545 101.02397 138.73608 101.00436 138.21046 101.03036 137.65247 101.10173 137.06849 101.2251 136.45213 101.39384 136.264 101.45222 136.06287 101.52359 135.86176 101.59497 135.64764 101.67273 135.44013 101.7571 135.226 101.84785 135.00527 101.93882 134.78477 102.03598 134.56403 102.13995 134.33715 102.24371 134.11004 102.36046 133.8763 102.4772 133.6428 102.59396 133.40269 102.7237 133.1628 102.85345 132.92268 102.98982 132.67619 103.12596 132.42945 103.27531 132.17657 103.42445 131.91708 103.5738 131.66396 103.73593 131.39785 103.89168 131.13834 104.06042 130.87246 104.22892 130.59997 104.4043 130.32748 104.57942 130.05498 104.76115 129.77587 104.94928 129.49038 105.1374 129.20489 105.3319 128.91962 105.52665 128.62751 105.72777 128.33564 105.92889 128.03715 106.13662 127.73865 106.34413 127.43378 106.55826 127.1289 106.77238 126.81742 106.99289 126.50593 107.2136 126.19443 107.44073 125.87656 107.66124 125.5523 107.89474 125.22782 108.12185 124.89695 108.35536 124.56608 108.5891 124.2352 108.82898 123.89773 109.06909 123.55386 109.3092 123.20998 109.54931 122.85973 109.79582 122.50925 110.03593 122.15899 110.28244 121.80213 110.52894 121.43888 110.78206 121.0754 111.02855 120.70553 111.28166 120.3359 111.52816 119.96604 111.78105 119.58956 112.03416 119.20692 112.28067 118.82406 112.53378 118.43482 112.7869 118.04557 113.03978 117.64971 113.28627 117.25385 113.53938 116.85822 113.78589 116.44936 114.039 116.04711 114.2855 115.63187 114.532 115.22324 114.77873 114.80138 115.02522 114.38615 115.27173 113.95791 115.51184 113.53628 115.75195 113.10166 115.99185 112.67342 116.23196 112.23219 116.46547 111.79095 116.69919 111.34971 116.93269 110.90208 117.15982 110.45446 117.38693 110.00022 117.60743 109.54621 117.82794 109.08537 118.04867 108.62475 118.26278 108.15775 118.47691 107.69051 118.68441 107.2169 118.89215 106.74328 119.09327 106.26966 119.2944 105.78944 119.4889 105.30305 119.67703 104.81643 119.86538 104.3232 120.05351 103.83659 120.22863 103.33697 120.40376 102.83736 120.57889 102.33797 120.74763 101.83836 120.90976 101.33213 121.0655 100.81976 121.22125 100.30714 121.3706 99.79453 121.51335 99.27554 121.6561 98.75654 121.79223 98.23731 121.92198 97.71194 122.04535 97.18633 122.16209 96.66071 122.27885 96.12873 122.38922 95.59673 122.49296 95.05836 122.59034 94.51975 122.68109 93.98115 122.77185 93.44276 122.85621 92.89777 122.9342 92.85877 122.9342 92.38515 122.99896 91.90516 123.05734 91.42493 123.10933 90.93832 123.16133 90.4583 123.20671 89.9717 123.24547 89.48508 123.28447 88.99847 123.31685 88.51185 123.34283 88.02523 123.36244 87.53861 123.38183 87.04562 123.39483 86.559 123.40782 86.06577 123.41421 85.57915 123.41421 85.08616 123.40782 84.59293 123.40121 84.09994 123.38821 83.60693 123.36883 83.1137 123.34945 82.6207 123.32345 82.13409 123.29107 81.64086 123.25207 81.14787 123.21309 80.65485 123.1677 80.16163 123.12233 79.66863 123.07034 79.1754 123.01196 78.68879 122.9536 78.1958 122.88221 77.70917 122.81746 77.21618 122.73947 76.72956 122.66171 76.24294 122.57734 75.75632 122.49296 75.2697 122.40222 74.78309 122.30484 74.30286 122.20747 73.82287 122.10373 73.33625 121.99336 72.86263 121.883 72.3824 121.77285 71.90878 121.64949 71.42878 121.52612 70.95516 121.40298 70.48792 121.27324 70.02093 121.13688 69.54708 121.00074 69.08646 120.858 68.61945 120.71525 68.15884 120.56588 67.7046 120.41676 67.24398 120.26101 66.78974 120.09889 66.34212 119.94314 65.8945 119.7744 65.44665 119.60566 64.99903 119.43715 64.5578 119.26179 64.12316 119.08667 63.68855 118.90515 63.25368 118.7168 62.82545 118.53529 62.40382 118.34717 61.98219 118.15242 61.56034 117.95768 61.1451 117.76318 60.72985 117.56205 60.32122 117.36093 59.91898 117.1532 59.51673 116.95207 59.12087 116.73796 58.72501 116.53045 58.33578 116.31633 57.9529 116.10222 57.57027 115.88171 57.1938 115.66098 56.81754 115.44047 56.44769 115.21974 56.08443 114.99284 55.72118 114.76573 55.36431 114.53862 55.01383 114.30511 54.66358 114.07798 54.31971 113.84427 53.98223 113.61076 53.65136 113.37065 53.32049 113.13714 52.99622 112.89703 52.67812 112.65713 52.36025 112.41702 52.04876 112.1769 51.7505 111.9368 51.4454 111.6969 51.15353 111.45018 50.86164 111.2103 50.57615 110.96356 50.29704 110.71705 50.02454 110.47056 49.75866 110.22406 49.49255 109.97757 49.23305 109.73083 48.97994 109.48433 48.73344 109.23784 48.49332 108.99133 48.25344 108.74482 48.02631 108.4981 47.7992 108.2516 47.57847 108.00511 47.36459 107.7586 47.15046 107.5121 46.94933 107.27199 46.7482 107.0255 46.55987 106.77876 46.37174 106.53888 46.19022 106.29214 46.01487 106.05226 45.84635 105.81215 45.67762 105.57203 45.52187 105.3319 45.36613 105.09202 45.21699 104.85191 45.07424 104.6184 44.93789 104.38467 44.80814 104.14479 44.67838 103.91768 44.56164 103.68394 44.4449 103.45706 44.33453 103.22332 44.23077 102.9962 44.14 102.78209 43.86091 102.08157 43.6404 101.39384 43.46505 100.73187 43.34829 100.08313 43.27053 99.46037 43.24454 98.8634 43.26392 98.28602 43.3223 97.74103 43.42628 97.21542 43.56242 96.72242 43.73115 96.26158 43.93227 95.82057 44.16578 95.41832 44.42527 95.04185 44.70438 94.69798 45.00288 94.3931 45.31414 94.11422 45.64524 93.86749 45.98249 93.65338 46.32636 93.47186 46.67684 93.3225 47.02709 93.20575 47.37096 93.12799 47.70844 93.076 48.03931 93.05662 48.35719 93.06962 48.66207 93.12138 48.94756 93.19275 49.22005 93.30311 49.46017 93.43948 49.68067 93.608 49.87542 93.80273 50.03754 94.02324 50.1739 94.27635 50.27766 94.54884 50.34241 94.84733 50.38142 95.1716 50.38142 95.51547 50.34241 95.87893 50.27105 96.26158 50.16729 96.66404 50.12191 96.80679 49.95979 97.2348 49.76505 97.67604 49.53793 98.13667 49.27843 98.6039 48.98655 99.07751 48.66207 99.56413 48.31182 100.05075 47.94195 100.54374 47.54609 101.03697 47.13085 101.52359 46.69622 102.01658 46.2486 102.49682 45.79436 102.97682 45.32714 103.44406 44.86013 103.89807 44.39289 104.34591 43.9259 104.78053 43.45866 105.19578 43.00442 105.59802 42.56318 105.98088 42.12856 106.34413 41.71333 106.688 41.31768 107.00587 40.94122 107.31099 40.59095 107.58348 40.26008 107.83636 39.95498 108.06987 39.68249 108.2776 39.43598 108.45933 39.21548 108.62147 39.02074 108.7576 38.85862 108.87459 38.72225 108.97172 38.61211 109.04971 38.52775 109.10809 38.46937 109.14708 38.42399 109.17946 38.398 109.19246 38.385 109.20546 38.385 109.20546"></polyline>
                <path d="M101.85113,2.24312 C101.85113,3.41836 100.8984,4.37109 99.72315,4.37109 C98.5479,4.37109 97.59518,3.41836 97.59518,2.24312 C97.59518,1.06787 98.5479,0.11514 99.72315,0.11514 C100.8984,0.11514 101.85113,1.06787 101.85113,2.24312 Z M12.82835,67.57133 C12.82835,68.7466 11.87562,69.6993 10.70037,69.6993 C9.52512,69.6993 8.5724,68.7466 8.5724,67.57133 C8.5724,66.39608 9.52512,65.44337 10.70037,65.44337 C11.87562,65.44337 12.82835,66.39608 12.82835,67.57133 Z M103.40173,155.05014 C103.40173,156.22538 102.44901,157.17811 101.27377,157.17811 C100.0985,157.17811 99.14579,156.22538 99.14579,155.05014 C99.14579,153.87489 100.0985,152.92216 101.27377,152.92216 C102.44901,152.92216 103.40173,153.87489 103.40173,155.05014 Z M176.04218,67.79207 C176.04218,68.96731 175.08945,69.92004 173.9142,69.92004 C172.73896,69.92004 171.78623,68.96731 171.78623,67.79207 C171.78623,66.61682 172.73896,65.66409 173.9142,65.66409 C175.08945,65.66409 176.04218,66.61682 176.04218,67.79207 Z M145.48347,21.72665 C145.48347,22.9019 144.53074,23.85463 143.35549,23.85463 C142.18024,23.85463 141.22752,22.9019 141.22752,21.72665 C141.22752,20.5514 142.18024,19.59868 143.35549,19.59868 C144.53074,19.59868 145.48347,20.5514 145.48347,21.72665 Z M65.5374,7.7774 C65.5374,8.95265 64.58468,9.90536 63.40943,9.90536 C62.23418,9.90536 61.28146,8.95265 61.28146,7.7774 C61.28146,6.60214 62.23418,5.64943 63.40943,5.64943 C64.58468,5.64943 65.5374,6.60214 65.5374,7.7774 Z M6.62571,90.60415 C6.62571,91.77942 5.67298,92.73213 4.49773,92.73213 C3.32249,92.73213 2.36976,91.77942 2.36976,90.60415 C2.36976,89.4289 3.32249,88.4762 4.49773,88.4762 C5.67298,88.4762 6.62571,89.4289 6.62571,90.60415 Z M50.69929,147.07617 C50.69929,148.25142 49.74656,149.20414 48.57131,149.20414 C47.39606,149.20414 46.44334,148.25142 46.44334,147.07617 C46.44334,145.90092 47.39606,144.9482 48.57131,144.9482 C49.74656,144.9482 50.69929,145.90092 50.69929,147.07617 Z M171.16964,106.99289 C171.16964,108.16813 170.21693,109.12085 169.04166,109.12085 C167.86642,109.12085 166.9137,108.16813 166.9137,106.99289 C166.9137,105.81762 167.86642,104.86491 169.04166,104.86491 C170.21693,104.86491 171.16964,105.81762 171.16964,106.99289 Z M176.26292,66.24147 C176.26292,67.41671 175.31019,68.36944 174.13494,68.36944 C172.9597,68.36944 172.00697,67.41671 172.00697,66.24147 C172.00697,65.06622 172.9597,64.11349 174.13494,64.11349 C175.31019,64.11349 176.26292,65.06622 176.26292,66.24147 Z M131.30709,48.08119 C131.30709,49.25644 130.35436,50.20916 129.17912,50.20916 C128.00387,50.20916 127.05114,49.25644 127.05114,48.08119 C127.05114,46.90594 128.00387,45.95321 129.17912,45.95321 C130.35436,45.95321 131.30709,46.90594 131.30709,48.08119 Z M116.24824,63.14004 C116.24824,64.31529 115.29551,65.268 114.12026,65.268 C112.94501,65.268 111.99229,64.31529 111.99229,63.14004 C111.99229,61.96478 112.94501,61.01207 114.12026,61.01207 C115.29551,61.01207 116.24824,61.96478 116.24824,63.14004 Z M122.89188,79.08775 C122.89188,80.263 121.93916,81.21573 120.76391,81.21573 C119.58866,81.21573 118.63593,80.263 118.63593,79.08775 C118.63593,77.9125 119.58866,76.95978 120.76391,76.95978 C121.93916,76.95978 122.89188,77.9125 122.89188,79.08775 Z M141.27267,69.56318 C141.27267,70.73843 140.31995,71.69114 139.14469,71.69114 C137.96944,71.69114 137.01673,70.73843 137.01673,69.56318 C137.01673,68.38792 137.96944,67.43521 139.14469,67.43521 C140.31995,67.43521 141.27267,68.38792 141.27267,69.56318 Z M109.8251,47.19894 C109.8251,48.37419 108.87238,49.32692 107.69712,49.32692 C106.52187,49.32692 105.56916,48.37419 105.56916,47.19894 C105.56916,46.0237 106.52187,45.07097 107.69712,45.07097 C108.87238,45.07097 109.8251,46.0237 109.8251,47.19894 Z M63.53918,52.29197 C63.53918,53.46724 62.58645,54.41995 61.4112,54.41995 C60.23595,54.41995 59.28323,53.46724 59.28323,52.29197 C59.28323,51.11673 60.23595,50.16401 61.4112,50.16401 C62.58645,50.16401 63.53918,51.11673 63.53918,52.29197 Z M49.5897,73.77397 C49.5897,74.94922 48.63697,75.90194 47.46172,75.90194 C46.28648,75.90194 45.33375,74.94922 45.33375,73.77397 C45.33375,72.59872 46.28648,71.646 47.46172,71.646 C48.63697,71.646 49.5897,72.59872 49.5897,73.77397 Z M62.21546,82.40968 C62.21546,83.58493 61.26275,84.53766 60.0875,84.53766 C58.91224,84.53766 57.95953,83.58493 57.95953,82.40968 C57.95953,81.23443 58.91224,80.2817 60.0875,80.2817 C61.26275,80.2817 62.21546,81.23443 62.21546,82.40968 Z M75.72372,67.79207 C75.72372,68.96731 74.77099,69.92004 73.59574,69.92004 C72.4205,69.92004 71.46777,68.96731 71.46777,67.79207 C71.46777,66.61682 72.4205,65.66409 73.59574,65.66409 C74.77099,65.66409 75.72372,66.61682 75.72372,67.79207 Z M47.81858,48.52903 C47.81858,49.70428 46.86587,50.65701 45.6906,50.65701 C44.51536,50.65701 43.56264,49.70428 43.56264,48.52903 C43.56264,47.35379 44.51536,46.40106 45.6906,46.40106 C46.86587,46.40106 47.81858,47.35379 47.81858,48.52903 Z M8.61755,80.19711 C8.61755,81.37236 7.66482,82.32509 6.48957,82.32509 C5.31432,82.32509 4.3616,81.37236 4.3616,80.19711 C4.3616,79.02186 5.31432,78.06913 6.48957,78.06913 C7.66482,78.06913 8.61755,79.02186 8.61755,80.19711 Z M32.75973,142.42436 C32.75973,143.5996 31.80701,144.55233 30.63177,144.55233 C29.4565,144.55233 28.50379,143.5996 28.50379,142.42436 C28.50379,141.24911 29.4565,140.29638 30.63177,140.29638 C31.80701,140.29638 32.75973,141.24911 32.75973,142.42436 Z M142.38204,138.88192 C142.38204,140.05717 141.42931,141.00988 140.25407,141.00988 C139.07882,141.00988 138.12609,140.05717 138.12609,138.88192 C138.12609,137.70666 139.07882,136.75395 140.25407,136.75395 C141.42931,136.75395 142.38204,137.70666 142.38204,138.88192 Z M131.7481,95.4767 C131.7481,96.65194 130.79537,97.60467 129.62012,97.60467 C128.44488,97.60467 127.49215,96.65194 127.49215,95.4767 C127.49215,94.30145 128.44488,93.34872 129.62012,93.34872 C130.79537,93.34872 131.7481,94.30145 131.7481,95.4767 Z M139.50133,107.2136 C139.50133,108.38887 138.5486,109.34158 137.37336,109.34158 C136.19811,109.34158 135.24538,108.38887 135.24538,107.2136 C135.24538,106.03836 136.19811,105.08564 137.37336,105.08564 C138.5486,105.08564 139.50133,106.03836 139.50133,107.2136 Z M138.39198,101.45222 C138.39198,102.62747 137.43925,103.58018 136.264,103.58018 C135.08875,103.58018 134.13602,102.62747 134.13602,101.45222 C134.13602,100.27696 135.08875,99.32425 136.264,99.32425 C137.43925,99.32425 138.39198,100.27696 138.39198,101.45222 Z M94.98675,122.9342 C94.98675,124.10945 94.03403,125.06218 92.85877,125.06218 C91.68352,125.06218 90.73081,124.10945 90.73081,122.9342 C90.73081,121.75895 91.68352,120.80623 92.85877,120.80623 C94.03403,120.80623 94.98675,121.75895 94.98675,122.9342 Z M46.26798,102.78209 C46.26798,103.95733 45.31525,104.91006 44.14,104.91006 C42.96476,104.91006 42.01203,103.95733 42.01203,102.78209 C42.01203,101.60684 42.96476,100.65411 44.14,100.65411 C45.31525,100.65411 46.26798,101.60684 46.26798,102.78209 Z M52.24989,96.80679 C52.24989,97.98204 51.29716,98.93477 50.12191,98.93477 C48.94666,98.93477 47.99393,97.98204 47.99393,96.80679 C47.99393,95.63154 48.94666,94.67881 50.12191,94.67881 C51.29716,94.67881 52.24989,95.63154 52.24989,96.80679 Z M40.51298,109.20546 C40.51298,110.3807 39.56025,111.33343 38.385,111.33343 C37.20975,111.33343 36.25703,110.3807 36.25703,109.20546 C36.25703,108.0302 37.20975,107.07748 38.385,107.07748 C39.56025,107.07748 40.51298,108.0302 40.51298,109.20546 Z" id="Fill-3" fill="#59D104"></path>
            </g>
        </g>
    </g>
</svg>